# Blender 4.0.1
# www.blender.org
mtllib Rabbit_Low_Poly.mtl
o Rabbit_Low_Poly
v 0.008387 0.142398 -0.144532
v -0.000107 0.119820 -0.144779
v -0.017131 0.147600 -0.140373
v 0.023538 0.126631 -0.138634
v -0.019789 0.117119 -0.138403
v 0.002070 0.153132 -0.137499
v 0.015580 0.109231 -0.136551
v -0.006412 0.106302 -0.137466
v -0.025818 0.129487 -0.135194
v 0.020388 0.148324 -0.136402
v 0.026025 0.141014 -0.128662
v -0.025421 0.141413 -0.126589
v 0.003649 0.155936 -0.123365
v -0.001027 0.100352 -0.127565
v -0.016974 0.104757 -0.125026
v 0.016773 0.104378 -0.125157
v 0.021361 0.147741 -0.122582
v -0.015690 0.079146 -0.127183
v -0.013562 0.152130 -0.119957
v 0.018732 0.085679 -0.126191
v 0.009883 0.055396 -0.125816
v -0.024601 0.119761 -0.123434
v -0.011816 0.049409 -0.124359
v 0.037329 0.062879 -0.117343
v -0.033265 0.054679 -0.118236
v 0.025020 0.117189 -0.123082
v -0.024642 0.131796 -0.117498
v 0.045485 0.091752 -0.112128
v 0.024239 0.132092 -0.113197
v 0.032672 0.112883 -0.115156
v 0.002152 0.033296 -0.119623
v -0.033142 0.117331 -0.113808
v 0.027869 0.031996 -0.112368
v 0.010123 0.147573 -0.113134
v -0.045911 0.081347 -0.113274
v 0.061261 0.076747 -0.100906
v -0.020228 0.025977 -0.110809
v -0.014694 0.141884 -0.108663
v -0.041121 0.033289 -0.102761
v -0.003242 0.145379 -0.108092
v 0.056744 0.047518 -0.098877
v -0.066039 0.083134 -0.094517
v 0.012241 0.143331 -0.106605
v 0.006295 0.017893 -0.105525
v -0.063096 0.060266 -0.098057
v -0.054993 0.108161 -0.100361
v 0.044658 0.023566 -0.089785
v 0.046729 0.124245 -0.098868
v -0.050541 0.129953 -0.091458
v -0.017701 0.006431 -0.085393
v 0.031081 0.144033 -0.097261
v -0.032541 0.144907 -0.094936
v -0.014008 0.157709 -0.089514
v 0.065967 0.098891 -0.091781
v -0.071670 0.073406 -0.088077
v 0.002531 0.156751 -0.093155
v 0.030669 0.004551 -0.078673
v 0.059530 0.107592 -0.096586
v 0.010193 0.007006 -0.088581
v 0.061565 0.027378 -0.077431
v -0.065101 0.116806 -0.083767
v 0.072038 0.087687 -0.085536
v -0.032201 0.006387 -0.079996
v -0.076244 0.085832 -0.080173
v 0.021234 0.165329 -0.076152
v 0.035114 0.158577 -0.074943
v 0.073772 0.048328 -0.077538
v 0.063451 0.129626 -0.075670
v -0.078078 0.047785 -0.068152
v 0.078420 0.074756 -0.075529
v -0.060696 0.025275 -0.076374
v 0.053878 0.142562 -0.075465
v -0.068956 0.099028 -0.087128
v -0.076264 0.104503 -0.068742
v -0.022317 0.168668 -0.069693
v 0.042381 0.003773 -0.067929
v -0.044783 0.005126 -0.067967
v -0.078645 0.068091 -0.074577
v 0.006971 0.001579 -0.073456
v -0.050218 0.148310 -0.071325
v -0.035180 0.001494 -0.064447
v -0.074913 0.030595 -0.058588
v -0.068327 0.129146 -0.066731
v -0.002818 0.173266 -0.067804
v 0.069491 0.112283 -0.079394
v -0.015469 0.003008 -0.063564
v 0.081619 0.056725 -0.060437
v -0.081499 0.081685 -0.062026
v 0.012839 0.179283 -0.051031
v 0.017207 0.003655 -0.053422
v 0.060813 0.011557 -0.055704
v 0.028255 0.001023 -0.063837
v 0.077012 0.101319 -0.068789
v 0.081983 0.089172 -0.061344
v -0.080487 0.092423 -0.064635
v -0.082317 0.046686 -0.053579
v 0.087283 0.072650 -0.046908
v -0.047020 0.156708 -0.054159
v 0.082405 0.083416 -0.056464
v -0.066711 0.142225 -0.032910
v 0.075942 0.030908 -0.055143
v -0.085039 0.095761 -0.043141
v 0.046056 0.159058 -0.044257
v 0.029804 0.174277 -0.044522
v -0.074736 0.019941 -0.039271
v -0.017083 0.034223 -0.032350
v 0.074056 0.124941 -0.048015
v -0.035891 0.001723 -0.039339
v 0.065711 0.143407 -0.041003
v -0.011002 0.006967 -0.051071
v 0.086557 0.054898 -0.037979
v -0.087138 0.064261 -0.045256
v -0.082606 0.038797 -0.038304
v -0.076664 0.117963 -0.046783
v -0.002705 0.183399 -0.043937
v -0.008218 0.026135 -0.036099
v 0.085891 0.093866 -0.043068
v -0.054349 0.003947 -0.015775
v 0.051665 0.003199 -0.012354
v -0.036248 0.171984 -0.037700
v -0.018651 0.182232 -0.032952
v 0.014972 0.011411 -0.037398
v -0.011168 0.011310 -0.044890
v 0.013598 0.033779 -0.022350
v 0.080031 0.021255 -0.021387
v -0.049883 0.159260 -0.019744
v -0.021695 0.011813 -0.036557
v -0.083991 0.032487 -0.029576
v 0.068188 0.008972 -0.015252
v 0.036525 0.173036 -0.026989
v 0.084124 0.031187 -0.028258
v -0.070929 0.010689 -0.007353
v 0.020981 0.181933 -0.025599
v 0.032375 0.006724 -0.021999
v 0.087887 0.045182 -0.019197
v 0.007482 0.020376 -0.035359
v -0.041857 0.004634 -0.007670
v -0.087557 0.046385 -0.020851
v -0.032465 0.007271 -0.018785
v -0.041462 0.170937 -0.001073
v 0.003428 0.186900 -0.012399
v -0.080150 0.116023 -0.022501
v -0.021084 0.034012 -0.030465
v -0.025594 0.034465 -0.024019
v -0.005978 0.038589 -0.022617
v -0.090779 0.080267 -0.014308
v -0.086929 0.098726 -0.020468
v -0.021572 0.048731 -0.009398
v -0.028748 0.180550 -0.009732
v 0.082024 0.111885 -0.011747
v 0.018150 0.039137 -0.011484
v -0.090351 0.061116 -0.018210
v 0.071585 0.135984 -0.005287
v 0.035533 0.013737 -0.002798
v 0.045151 0.164558 -0.016185
v 0.091130 0.075674 -0.009116
v -0.024801 0.046966 -0.009691
v -0.084492 0.027619 0.002323
v -0.036737 0.021846 0.002616
v -0.012453 0.185412 -0.002492
v 0.027030 0.032319 -0.011945
v -0.072659 0.133293 -0.001995
v 0.012666 0.043200 -0.003799
v -0.058599 0.151984 0.018557
v 0.086508 0.031274 -0.001087
v 0.033838 0.176676 -0.013506
v -0.036035 0.011392 -0.000647
v -0.086673 0.098709 -0.002312
v 0.037022 0.006132 -0.008024
v -0.078795 0.118642 0.003919
v 0.088715 0.050643 0.008728
v -0.006316 0.045546 -0.003127
v -0.036243 0.039350 0.008585
v 0.038368 0.027712 0.006720
v 0.035216 0.037447 0.007154
v -0.088823 0.050326 0.007145
v -0.047033 0.000399 0.021939
v 0.056105 0.154574 0.007975
v -0.030772 0.046334 0.012528
v 0.037682 0.007874 0.012967
v 0.084037 0.097941 0.017407
v 0.042966 0.003041 0.015030
v 0.068835 0.008149 0.015489
v -0.038827 0.015959 0.010867
v 0.006492 0.047179 0.012499
v -0.048834 0.031121 0.017086
v 0.029994 0.180535 0.004479
v 0.074775 0.015700 0.019663
v -0.070911 0.132269 0.025699
v -0.055662 0.002917 0.024401
v -0.038135 0.003868 0.020737
v 0.085491 0.074057 0.020765
v -0.026403 0.182134 0.010599
v -0.085093 0.080292 0.021741
v 0.072818 0.129166 0.019590
v -0.019172 0.049805 0.025321
v 0.066683 0.311381 0.014040
v -0.066148 0.308332 0.011534
v 0.045439 0.028595 0.016693
v 0.047204 0.307316 0.013841
v -0.000047 0.187324 0.013188
v -0.077205 0.018715 0.016110
v 0.044020 0.286853 0.015484
v 0.058110 0.330115 0.017806
v -0.053767 0.300934 0.011591
v -0.081250 0.046577 0.014272
v -0.077805 0.111510 0.024089
v -0.063249 0.281815 0.018363
v 0.067467 0.046330 0.014754
v -0.044754 0.042289 0.016757
v -0.058426 0.040343 0.016520
v 0.080279 0.049097 0.014722
v -0.058096 0.328698 0.013356
v 0.048404 0.041084 0.017594
v -0.084046 0.038489 0.015063
v 0.054779 0.002871 0.022798
v -0.042051 0.314355 0.016407
v -0.068552 0.051796 0.019705
v 0.080807 0.037262 0.016950
v -0.040648 0.298038 0.014856
v 0.059417 0.331234 0.021241
v -0.081671 0.069080 0.024548
v 0.067516 0.294677 0.017881
v -0.039730 0.277231 0.019050
v -0.064739 0.286860 0.020504
v 0.057779 0.269248 0.023006
v -0.038195 0.013680 0.022068
v 0.042706 0.045166 0.020698
v 0.062237 0.053561 0.022523
v 0.057141 0.034158 0.020663
v -0.035747 0.310379 0.020336
v -0.061759 0.018157 0.029713
v 0.059677 0.277724 0.025021
v -0.042937 0.046585 0.022298
v -0.024147 0.189313 0.024207
v 0.058394 0.313984 0.022630
v 0.039575 0.170717 0.030089
v -0.059828 0.028795 0.024167
v -0.047194 0.024402 0.026171
v -0.059933 0.330065 0.016849
v 0.023736 0.191126 0.025613
v -0.060539 0.309112 0.020107
v 0.074778 0.067568 0.027804
v -0.000482 0.195354 0.023992
v 0.042349 0.266360 0.022347
v -0.058314 0.053801 0.028957
v 0.072269 0.028105 0.026387
v 0.036868 0.312697 0.021271
v -0.053764 0.331509 0.019749
v 0.043735 0.017315 0.025197
v -0.038800 0.172174 0.027721
v -0.027902 0.276639 0.025257
v -0.049217 0.258391 0.028440
v 0.028536 0.276289 0.025004
v 0.076386 0.092647 0.029367
v 0.074253 0.111455 0.035754
v 0.046073 0.290776 0.025201
v -0.045813 0.281389 0.028406
v -0.048530 0.305578 0.023464
v 0.045607 0.299410 0.026635
v -0.046807 0.044987 0.029752
v -0.075835 0.095714 0.032549
v -0.072386 0.071819 0.031048
v 0.053614 0.020014 0.031603
v 0.060024 0.055199 0.032808
v -0.005469 0.049882 0.046240
v 0.026756 0.052272 0.048960
v 0.072025 0.073235 0.032402
v -0.048921 0.259008 0.033022
v 0.033214 0.309277 0.026506
v -0.037128 0.190333 0.040927
v -0.001784 0.211829 0.029914
v 0.044989 0.008757 0.028341
v 0.035031 0.045987 0.029553
v -0.054207 0.322078 0.030548
v -0.047689 0.010750 0.034211
v -0.033277 0.049136 0.031524
v 0.070655 0.131831 0.036165
v 0.058563 0.150744 0.046696
v 0.053281 0.044804 0.031338
v -0.029357 0.200893 0.033877
v 0.048202 0.317847 0.035520
v 0.035017 0.193693 0.038055
v -0.028480 0.254984 0.033324
v 0.049097 0.256603 0.032886
v 0.058118 0.015023 0.032841
v 0.057962 0.039022 0.038694
v 0.042693 0.246091 0.036174
v -0.054937 0.047545 0.036447
v 0.027205 0.253642 0.034901
v -0.044146 0.320187 0.034302
v 0.035241 0.044728 0.033360
v 0.006429 0.049623 0.046275
v -0.041035 0.245773 0.037367
v 0.042504 0.321321 0.034242
v 0.054665 0.028236 0.038929
v 0.045461 0.028817 0.035840
v 0.066091 0.080712 0.051714
v -0.039214 0.267695 0.035818
v -0.030619 0.304946 0.037746
v -0.035736 0.043852 0.036036
v -0.056813 0.032316 0.039274
v 0.042596 0.161351 0.044100
v -0.039097 0.034111 0.036056
v 0.023743 0.278599 0.035731
v -0.028305 0.053611 0.037360
v -0.044682 0.159293 0.043780
v 0.069334 0.124532 0.048644
v -0.043493 0.303086 0.031590
v 0.038784 0.262421 0.037567
v 0.054867 0.060069 0.049533
v 0.036374 0.038383 0.036522
v -0.011838 0.225489 0.041046
v 0.035956 0.021238 0.041374
v 0.025678 0.214991 0.044577
v -0.069153 0.113850 0.050226
v -0.050370 0.021798 0.040737
v 0.039259 0.172470 0.045381
v 0.009580 0.223140 0.038413
v 0.022652 0.238443 0.048244
v 0.042243 0.245208 0.040461
v -0.032160 0.236728 0.050884
v -0.026217 0.215976 0.050060
v 0.069585 0.108890 0.050574
v 0.047623 0.016639 0.045205
v 0.054702 0.046848 0.047804
v -0.034834 0.253368 0.045598
v -0.039214 0.171916 0.045316
v -0.025156 0.289916 0.035706
v -0.021092 0.241088 0.050285
v -0.031357 0.048567 0.050035
v 0.000770 0.237230 0.051171
v -0.062166 0.141477 0.050248
v 0.033196 0.259438 0.049242
v -0.056139 0.034304 0.050864
v 0.030838 0.237714 0.051082
v -0.033395 0.011824 0.052748
v -0.024309 0.233888 0.050168
v -0.047542 0.182516 0.064797
v -0.041302 0.301631 0.043889
v -0.036348 0.274367 0.048108
v 0.047075 0.182739 0.064521
v 0.021121 0.272600 0.053220
v -0.065277 0.082413 0.055487
v 0.053328 0.019662 0.059983
v -0.047766 0.057417 0.057208
v 0.031024 0.208350 0.051232
v -0.019994 0.053512 0.056141
v 0.041425 0.005708 0.059515
v -0.035143 0.299718 0.048468
v 0.039744 0.297302 0.045748
v -0.050866 0.013776 0.056610
v 0.018962 0.230426 0.051423
v 0.038286 0.154866 0.058189
v -0.020168 0.263131 0.052488
v 0.018072 0.244259 0.062085
v -0.043653 0.005372 0.062441
v -0.026621 0.018590 0.058283
v -0.039933 0.154960 0.062272
v -0.016104 0.232737 0.054188
v 0.026186 0.020954 0.056277
v 0.003522 0.057111 0.076471
v 0.061291 0.104674 0.068470
v -0.052674 0.020622 0.062864
v 0.030364 0.010144 0.057975
v 0.030662 0.040436 0.051828
v -0.043573 0.200758 0.066526
v -0.046473 0.040065 0.058756
v 0.058533 0.127830 0.068058
v 0.051042 0.072878 0.066527
v 0.024941 0.059087 0.070658
v 0.037727 0.159833 0.073152
v -0.050827 0.143868 0.065823
v -0.058976 0.126990 0.069136
v 0.045450 0.197244 0.067611
v 0.025910 0.226843 0.054733
v 0.029320 0.222475 0.062912
v -0.033245 0.285865 0.054327
v -0.028010 0.225666 0.063146
v -0.024364 0.280079 0.055658
v -0.038749 0.160290 0.070103
v 0.026998 0.054023 0.066501
v 0.049357 0.023704 0.067223
v 0.014149 0.241133 0.067421
v -0.052385 0.078762 0.070629
v 0.024132 0.254987 0.064932
v -0.006497 0.242256 0.069653
v -0.025597 0.034180 0.069476
v -0.018778 0.243510 0.065041
v -0.058252 0.106867 0.072301
v -0.031263 0.271467 0.053729
v -0.029997 0.037352 0.071286
v 0.054169 0.001974 0.078810
v 0.021974 0.232079 0.067237
v 0.025518 0.006152 0.080155
v 0.021355 0.254160 0.064024
v 0.034856 0.062779 0.072064
v 0.027309 0.281093 0.059478
v 0.034498 0.227465 0.081373
v -0.021521 0.059593 0.073816
v 0.057306 0.007878 0.073011
v 0.032260 0.282874 0.057509
v 0.033647 0.148713 0.079329
v -0.025542 0.240868 0.061961
v -0.026201 0.051554 0.068132
v -0.049190 0.019020 0.072652
v -0.023965 0.264240 0.063411
v -0.051998 0.004055 0.078414
v 0.038840 0.214139 0.076965
v 0.025522 0.024428 0.077699
v -0.024425 0.005668 0.081669
v -0.030320 0.061729 0.073902
v 0.047373 0.080527 0.075998
v 0.029141 0.041667 0.070245
v -0.031655 0.145534 0.088570
v -0.038861 0.215741 0.080840
v 0.047861 0.194668 0.087411
v -0.025633 0.022413 0.080210
v 0.040035 0.138344 0.082413
v 0.045771 0.173859 0.103726
v -0.021493 0.235049 0.072491
v -0.032950 0.229622 0.080508
v -0.052759 0.002868 0.088996
v 0.043932 0.124513 0.084951
v -0.047949 0.180274 0.086756
v -0.042938 0.136501 0.082299
v -0.045211 0.107877 0.085096
v -0.021063 0.237340 0.091353
v -0.041898 0.162969 0.094883
v -0.046522 0.199292 0.087622
v 0.024118 0.013380 0.089328
v 0.024153 0.235481 0.090619
v 0.046626 0.018109 0.090688
v -0.020369 0.081610 0.094091
v 0.005113 0.236397 0.107855
v 0.046962 0.105839 0.083238
v 0.028299 0.142939 0.096476
v -0.021464 0.012629 0.092001
v 0.058550 0.012011 0.086920
v 0.029356 0.151603 0.099866
v 0.023642 0.080747 0.091640
v 0.038312 0.211150 0.094057
v -0.031113 0.152160 0.098073
v 0.053098 0.000465 0.089465
v 0.006398 0.076745 0.094571
v -0.049638 0.013463 0.091431
v -0.028477 0.013410 0.096732
v 0.030689 0.109783 0.095181
v -0.035018 0.128587 0.092553
v -0.030408 0.004597 0.096292
v -0.035775 0.219317 0.095706
v -0.048556 0.005298 0.096564
v -0.022715 0.113593 0.103197
v 0.032861 0.005365 0.096746
v 0.040313 0.198215 0.102692
v 0.045800 0.004615 0.098757
v 0.020359 0.130131 0.106487
v -0.046115 0.191206 0.106801
v 0.038740 0.163871 0.110624
v -0.045369 0.179415 0.125287
v 0.017325 0.103538 0.104419
v 0.031429 0.222093 0.103516
v 0.035555 0.208477 0.106419
v -0.035820 0.202745 0.105766
v -0.023360 0.134469 0.104574
v -0.035504 0.158088 0.108616
v -0.000765 0.106218 0.108920
v 0.046310 0.189275 0.115301
v 0.018482 0.145977 0.108068
v 0.017419 0.152702 0.115018
v 0.018560 0.225435 0.118058
v -0.016581 0.148443 0.110271
v -0.030408 0.218908 0.109105
v -0.008437 0.130435 0.112019
v -0.028022 0.208639 0.119086
v 0.031804 0.204123 0.116499
v 0.002042 0.147701 0.113107
v -0.039885 0.172939 0.130910
v -0.036574 0.197391 0.124523
v -0.014436 0.226780 0.121049
v 0.025491 0.161188 0.127762
v -0.024468 0.158379 0.124513
v -0.041127 0.185877 0.132060
v 0.021326 0.204420 0.135599
v 0.038254 0.172842 0.131221
v -0.016449 0.210915 0.134591
v 0.003233 0.218740 0.134984
v 0.044157 0.185123 0.128448
v -0.020724 0.172108 0.142081
v 0.029078 0.186398 0.140405
v -0.001600 0.159211 0.132887
v -0.014947 0.193693 0.146899
v 0.012473 0.192840 0.147998
v 0.009960 0.171712 0.145374
v -0.000697 0.185022 0.150733
vn -0.9776 -0.0616 -0.2013
vn -0.9631 0.2122 -0.1655
vn -0.9640 0.0496 -0.2612
vn -0.8901 0.0102 0.4557
vn -0.8842 0.0222 0.4666
vn -0.6915 -0.3708 0.6199
vn -0.6414 -0.2311 0.7316
vn 0.0355 0.0846 0.9958
vn -0.2736 -0.5036 0.8195
vn -0.4336 -0.0781 0.8977
vn -0.8024 0.2237 -0.5532
vn -0.8911 0.1024 -0.4421
vn -0.9092 0.2766 -0.3111
vn -0.7356 0.0822 -0.6724
vn -0.8189 0.0856 -0.5675
vn -0.8873 -0.0747 0.4551
vn -0.6944 0.7194 0.0174
vn -0.8021 0.2334 0.5496
vn -0.9276 0.0918 0.3621
vn -0.7906 -0.0522 0.6101
vn -0.0823 0.5727 -0.8156
vn 0.0771 -0.1024 -0.9918
vn -0.8041 0.5096 0.3061
vn -0.7888 0.5691 0.2320
vn -0.7645 0.6416 0.0620
vn 0.2239 0.9739 0.0370
vn -0.9448 0.0907 0.3147
vn -0.7560 -0.2581 0.6015
vn -0.9804 -0.1459 -0.1322
vn 0.5490 0.3885 -0.7401
vn -0.2106 -0.7180 -0.6634
vn -0.6208 -0.7117 0.3288
vn 0.4898 -0.3321 -0.8061
vn -0.8211 -0.2507 -0.5127
vn -0.8155 0.5756 -0.0601
vn -0.4423 -0.2263 -0.8679
vn -0.7135 -0.2104 -0.6683
vn -0.5522 0.0476 -0.8324
vn -0.9900 -0.1411 -0.0027
vn -0.8492 -0.5269 0.0352
vn -0.9401 -0.1035 0.3249
vn -0.6944 0.1246 0.7087
vn -0.6860 0.3801 0.6204
vn -0.6475 -0.0884 0.7569
vn -0.9911 0.1149 -0.0679
vn 0.9219 0.2550 0.2918
vn 0.1964 -0.1542 0.9683
vn 0.7846 -0.5618 0.2622
vn -0.6396 0.6661 -0.3837
vn -0.6958 0.6944 -0.1833
vn -0.5947 0.7836 -0.1800
vn -0.7123 0.5887 0.3821
vn -0.8177 0.4791 0.3190
vn -0.9235 0.3499 0.1569
vn -0.8689 0.2923 -0.3996
vn -0.9001 0.3524 -0.2561
vn -0.7411 0.5181 -0.4270
vn -0.6389 -0.7570 -0.1368
vn 0.6621 -0.7410 -0.1119
vn 0.2937 -0.6791 0.6728
vn -0.6675 0.4493 -0.5937
vn 0.4481 -0.6696 -0.5923
vn -0.1503 -0.9272 -0.3430
vn -0.3497 0.8352 -0.4244
vn 0.9466 0.2113 0.2436
vn 0.8213 -0.3868 0.4193
vn -0.0669 0.2493 0.9661
vn -0.4959 0.5720 -0.6534
vn -0.8858 -0.0499 -0.4614
vn -0.9104 0.4100 0.0557
vn 0.1099 -0.9482 0.2981
vn 0.0016 -0.9920 0.1265
vn 0.3689 -0.9006 0.2297
vn 0.4169 -0.9084 -0.0310
vn 0.8977 0.0796 0.4334
vn 0.2546 0.4469 0.8576
vn -0.4988 0.6103 -0.6154
vn -0.0360 0.4659 -0.8841
vn -0.5413 0.8324 -0.1186
vn -0.4783 0.6287 -0.6132
vn -0.2107 0.7847 -0.5829
vn 0.9144 -0.1854 -0.3599
vn -0.6250 -0.3690 -0.6880
vn 0.1162 -0.9006 0.4188
vn 0.2436 -0.6964 0.6751
vn 0.6490 -0.5276 0.5482
vn -0.0341 0.8872 -0.4602
vn -0.0824 -0.9863 0.1430
vn 0.0486 -0.8448 0.5328
vn 0.1377 -0.9800 0.1439
vn 0.0681 0.7859 -0.6146
vn 0.2797 0.8250 -0.4911
vn 0.2224 0.9246 -0.3092
vn 0.5336 -0.3194 -0.7831
vn -0.0036 -0.4640 -0.8858
vn 0.4907 -0.5856 -0.6453
vn 0.0490 -0.9865 0.1560
vn -0.0894 -0.7040 0.7046
vn -0.3703 -0.6833 0.6292
vn -0.3234 -0.5391 0.7777
vn -0.4360 -0.6970 0.5692
vn -0.0260 -0.9914 -0.1281
vn 0.0524 -0.8846 -0.4634
vn 0.2641 -0.8564 -0.4437
vn 0.4177 -0.4740 0.7751
vn 0.3945 -0.4549 0.7984
vn -0.7925 0.1561 0.5895
vn -0.6966 0.5272 0.4866
vn -0.9391 -0.1322 -0.3173
vn -0.7229 -0.6892 -0.0482
vn 0.0403 -0.9983 -0.0430
vn -0.5445 -0.7723 0.3272
vn -0.1252 -0.9624 0.2412
vn -0.9675 -0.2456 -0.0607
vn -0.5183 -0.8532 0.0587
vn -0.9902 0.0088 0.1396
vn -0.9584 -0.0564 -0.2799
vn 0.3749 0.2101 0.9030
vn 0.5154 0.8240 -0.2354
vn 0.5259 0.7470 -0.4067
vn -0.4544 -0.4855 -0.7469
vn -0.6370 -0.7657 0.0888
vn -0.9277 -0.2796 0.2474
vn -0.9502 -0.1556 0.2701
vn -0.8174 -0.2505 0.5187
vn -0.7011 -0.5087 0.4996
vn 0.9405 -0.3382 0.0327
vn 0.7491 -0.6255 0.2185
vn 0.7668 -0.5350 0.3548
vn 0.7888 0.5548 0.2645
vn 0.9084 0.3604 0.2120
vn 0.8772 0.2702 0.3969
vn 0.6327 0.7642 -0.1254
vn 0.6606 0.7253 -0.1937
vn 0.6641 0.6164 -0.4232
vn -0.5385 -0.3869 0.7486
vn -0.4152 -0.8915 0.1813
vn -0.1343 -0.2183 0.9666
vn -0.6488 -0.4883 0.5836
vn -0.7170 0.2057 0.6660
vn 0.9743 -0.1059 -0.1988
vn 0.9434 -0.3220 0.0798
vn -0.7674 0.3317 0.5486
vn 0.6542 0.6182 0.4357
vn 0.8692 0.0470 0.4923
vn 0.5269 -0.6084 -0.5935
vn 0.6653 -0.5444 -0.5109
vn 0.3836 -0.8709 -0.3072
vn 0.9271 0.3192 0.1966
vn 0.9734 0.2183 0.0697
vn 0.7017 0.4401 0.5603
vn 0.7175 0.6280 0.3014
vn 0.8445 0.4152 0.3384
vn -0.2762 0.0939 -0.9565
vn -0.7147 0.4185 -0.5604
vn 0.0396 0.7685 -0.6386
vn 0.3816 -0.5364 -0.7528
vn 0.6973 -0.4818 -0.5307
vn 0.0078 -0.4283 -0.9036
vn 0.6195 -0.7345 -0.2770
vn 0.5378 -0.8401 -0.0709
vn 0.4119 0.8871 0.2084
vn 0.8266 0.1522 -0.5418
vn 0.7841 0.6046 -0.1405
vn 0.7077 0.7047 -0.0504
vn 0.7515 0.6595 0.0190
vn 0.5884 -0.0561 0.8066
vn 0.9635 -0.2062 -0.1707
vn 0.9057 0.2270 0.3581
vn 0.9259 0.3493 0.1442
vn 0.5651 -0.8057 0.1773
vn 0.7961 -0.5924 -0.1241
vn 0.9389 0.1879 0.2884
vn 0.8488 -0.0488 0.5264
vn 0.9973 0.0712 0.0182
vn -0.9123 -0.4052 0.0587
vn -0.9456 -0.1244 0.3005
vn -0.9779 -0.1851 -0.0977
vn -0.7007 -0.0044 0.7134
vn -0.9549 0.1319 -0.2661
vn -0.8037 -0.4791 -0.3528
vn -0.9306 -0.3309 -0.1567
vn -0.9550 -0.2077 -0.2117
vn -0.9154 0.3726 -0.1524
vn -0.9208 0.3857 -0.0572
vn -0.7940 0.6001 -0.0974
vn -0.6605 -0.5554 -0.5052
vn -0.7370 -0.6444 -0.2040
vn -0.4534 -0.8277 -0.3306
vn -0.6147 -0.7877 -0.0419
vn -0.2233 -0.9740 -0.0394
vn -0.6316 0.0987 0.7690
vn -0.8078 -0.1400 0.5726
vn -0.6029 0.3075 0.7361
vn 0.3446 0.7496 0.5650
vn 0.2629 -0.5151 0.8158
vn 0.5593 0.3092 0.7692
vn -0.6345 0.1865 0.7501
vn 0.4333 -0.0124 -0.9012
vn 0.2177 -0.3240 -0.9207
vn -0.5352 -0.4933 -0.6857
vn -0.8039 -0.5442 -0.2400
vn -0.3338 -0.5912 -0.7342
vn 0.0791 0.5096 0.8568
vn 0.0870 -0.9580 0.2733
vn -0.9615 -0.2694 0.0549
vn -0.9806 -0.0710 -0.1828
vn -0.8643 0.3968 0.3092
vn -0.6398 0.6088 0.4690
vn 0.5909 0.6969 0.4063
vn -0.6408 0.6280 0.4416
vn 0.7547 -0.1096 -0.6469
vn 0.5034 -0.4231 -0.7534
vn -0.6827 -0.6819 0.2624
vn -0.6424 -0.7236 0.2526
vn 0.7224 -0.5057 -0.4716
vn 0.3246 -0.9425 0.0793
vn 0.8339 -0.4977 -0.2385
vn -0.8958 0.3447 -0.2806
vn -0.3347 -0.4713 0.8160
vn -0.6784 0.0573 0.7324
vn -0.5015 -0.1656 0.8491
vn -0.9016 -0.1727 -0.3966
vn 0.5502 -0.4913 0.6752
vn 0.6210 -0.7057 0.3411
vn -0.0274 -0.7501 0.6607
vn 0.0080 0.5732 -0.8194
vn -0.4737 0.8711 -0.1297
vn -0.0022 0.9499 -0.3125
vn -0.1872 0.9820 -0.0259
vn -0.5773 -0.3141 -0.7537
vn -0.1860 -0.6932 -0.6964
vn -0.2174 -0.0118 -0.9760
vn 0.0766 0.9793 0.1874
vn 0.0184 0.8581 -0.5132
vn -0.0759 -0.9874 0.1389
vn 0.1587 -0.1767 -0.9714
vn -0.1741 -0.2612 -0.9495
vn -0.0434 0.9670 -0.2510
vn -0.3045 0.9364 -0.1746
vn 0.0597 0.9968 -0.0527
vn 0.0701 -0.7529 -0.6544
vn -0.1097 -0.9032 -0.4150
vn 0.0881 -0.5721 0.8154
vn 0.6637 0.6814 0.3085
vn 0.3102 0.7876 0.5325
vn -0.0355 -0.2596 0.9651
vn 0.3885 -0.2546 0.8856
vn 0.4940 -0.0354 0.8688
vn 0.8396 0.4671 -0.2774
vn 0.5291 0.8432 -0.0951
vn 0.5023 0.8507 0.1547
vn 0.5175 0.6780 0.5220
vn 0.7648 0.5218 0.3779
vn 0.9640 0.2532 -0.0812
vn 0.8482 -0.5246 -0.0734
vn 0.3206 0.1169 0.9400
vn 0.8101 0.5409 0.2264
vn 0.9304 0.1752 0.3220
vn 0.8298 0.4537 -0.3248
vn 0.8034 0.3542 -0.4786
vn 0.7056 0.4750 -0.5258
vn 0.8942 -0.0846 0.4396
vn 0.9316 -0.1875 0.3113
vn 0.6185 0.4439 -0.6485
vn 0.4491 0.6535 -0.6093
vn 0.9936 0.0863 -0.0732
vn 0.7170 0.5830 0.3821
vn 0.8992 0.4196 -0.1239
vn 0.9225 0.3136 -0.2250
vn 0.8896 0.3944 -0.2305
vn 0.8192 0.5723 -0.0369
vn -0.2919 0.3810 0.8773
vn 0.2101 -0.2445 0.9466
vn 0.3885 -0.7194 -0.5758
vn 0.9982 0.0536 -0.0273
vn 0.7582 -0.1909 0.6234
vn 0.5536 0.0395 0.8318
vn 0.9667 -0.1372 -0.2161
vn 0.7263 -0.5326 -0.4345
vn 0.6746 -0.0683 0.7350
vn 0.8527 0.1064 -0.5114
vn 0.7165 -0.0351 -0.6967
vn 0.7820 0.1846 -0.5953
vn 0.9089 0.4077 0.0873
vn 0.7589 -0.4832 0.4366
vn 0.9372 -0.3354 0.0960
vn 0.4664 -0.4120 0.7828
vn 0.9194 -0.1371 0.3686
vn 0.3666 -0.1540 0.9175
vn -0.9640 0.2437 0.1059
vn -0.9579 0.2816 -0.0565
vn -0.9275 0.3626 0.0912
vn -0.8694 0.4934 0.0276
vn -0.8996 0.4335 0.0536
vn -0.9458 0.2172 0.2414
vn -0.8702 -0.2745 -0.4091
vn -0.8444 -0.2642 0.4660
vn -0.6540 -0.3703 0.6597
vn -0.9529 0.2929 0.0790
vn -0.8978 0.4334 -0.0781
vn -0.7253 0.6843 -0.0753
vn -0.6896 0.7239 -0.0182
vn -0.6755 -0.4419 0.5902
vn -0.3266 -0.4452 0.8337
vn -0.7365 0.2499 0.6286
vn 0.9274 -0.3303 0.1758
vn 0.3594 -0.9323 0.0404
vn -0.7763 0.4513 0.4401
vn -0.8411 0.4673 0.2722
vn -0.7515 0.5171 0.4096
vn 0.5922 -0.7719 0.2312
vn 0.1186 0.2033 0.9719
vn 0.7156 0.3945 0.5764
vn -0.4771 0.5649 0.6732
vn -0.3495 0.2597 0.9002
vn -0.4255 0.8742 0.2338
vn -0.6345 0.2559 -0.7293
vn -0.9263 0.3425 0.1572
vn -0.4130 0.8699 0.2696
vn -0.3262 -0.4575 0.8272
vn -0.1523 -0.1137 0.9818
vn -0.3597 0.6409 -0.6781
vn 0.2536 0.6069 -0.7532
vn 0.0099 0.9973 -0.0734
vn 0.0029 0.8530 -0.5218
vn -0.0876 0.5709 -0.8164
vn -0.0303 -0.0462 0.9985
vn 0.1916 -0.4989 0.8452
vn -0.1811 -0.9335 0.3095
vn -0.2453 -0.9086 0.3381
vn -0.1969 -0.8462 0.4951
vn 0.3897 0.8887 -0.2415
vn 0.0943 0.9237 0.3714
vn 0.0400 0.9945 0.0971
vn 0.1737 0.4724 -0.8641
vn 0.7496 -0.1237 -0.6502
vn -0.0146 -0.2251 -0.9742
vn 0.3078 -0.7988 0.5169
vn 0.0805 -0.5416 0.8368
vn 0.5300 -0.3567 0.7694
vn 0.7681 0.5105 0.3865
vn 0.5569 0.5307 0.6390
vn -0.9737 0.1981 0.1128
vn -0.6685 -0.3404 -0.6612
vn -0.9094 0.3051 -0.2826
vn 0.7510 -0.0561 -0.6579
vn 0.3787 -0.7684 0.5160
vn 0.4754 0.6426 -0.6009
vn -0.6390 -0.6071 -0.4724
vn 0.6216 -0.3593 0.6961
vn 0.6523 -0.0875 0.7529
vn 0.6658 -0.3096 -0.6789
vn 0.3859 -0.5109 -0.7681
vn 0.4719 -0.1353 -0.8712
vn 0.5576 0.2132 0.8022
vn -0.4047 0.7905 0.4596
vn 0.6187 0.1472 0.7717
vn 0.2635 -0.2839 0.9219
vn -0.4476 -0.3715 0.8134
vn 0.5049 -0.8117 0.2935
vn 0.6966 0.1494 0.7017
vn 0.6047 -0.1343 0.7851
vn 0.1561 -0.9061 0.3933
vn 0.2204 0.7457 0.6288
vn 0.0873 -0.9959 -0.0253
vn 0.7859 -0.3422 0.5150
vn 0.6568 -0.4835 0.5787
vn 0.4887 -0.8577 -0.1595
vn 0.4362 0.2540 0.8633
vn 0.6355 0.0788 0.7681
vn -0.1507 0.5010 0.8523
vn 0.8520 -0.4242 -0.3067
vn 0.8311 -0.2646 -0.4891
vn 0.9020 -0.0142 -0.4315
vn 0.9237 -0.0372 0.3812
vn 0.8422 -0.2850 0.4576
vn 0.9559 0.0960 0.2775
vn 0.9772 -0.0063 -0.2124
vn 0.9652 0.2053 -0.1619
vn -0.9956 0.0933 0.0016
vn -0.3719 0.0094 0.9282
vn -0.7679 -0.5021 0.3977
vn -0.3975 -0.8122 0.4271
vn -0.6571 0.2670 -0.7049
vn -0.5835 0.0032 0.8121
vn -0.9751 0.0795 0.2071
vn 0.7968 0.4092 -0.4445
vn -0.4973 -0.2931 0.8166
vn -0.4596 0.8861 -0.0597
vn -0.3584 -0.7958 0.4882
vn -0.4839 0.1856 0.8552
vn 0.1154 -0.9880 0.1027
vn 0.8231 -0.3237 0.4666
vn -0.7712 0.0626 0.6335
vn -0.8020 -0.1256 0.5840
vn -0.7810 0.1768 0.5990
vn 0.0286 -0.9990 0.0351
vn -0.3006 -0.8249 -0.4788
vn -0.2838 -0.6045 -0.7443
vn -0.3898 0.7436 0.5433
vn -0.4449 -0.5398 0.7146
vn 0.1677 0.9290 0.3298
vn 0.0316 -0.4866 -0.8730
vn 0.2891 0.2322 0.9287
vn 0.2696 0.0177 -0.9628
vn 0.0848 0.6673 0.7399
vn -0.6243 0.1244 0.7712
vn 0.6077 0.7923 -0.0553
vn 0.3279 0.9360 -0.1283
vn -0.6044 -0.6744 -0.4241
vn 0.0133 -0.9112 -0.4117
vn 0.6752 -0.4518 0.5830
vn 0.8503 -0.0630 0.5225
vn -0.9057 0.3967 -0.1494
vn -0.6482 -0.1839 -0.7390
vn 0.7439 0.1059 0.6598
vn 0.8058 -0.1741 0.5661
vn 0.8959 -0.3515 -0.2716
vn 0.8534 0.3112 -0.4182
vn 0.6923 0.2760 -0.6667
vn 0.7736 0.4733 -0.4213
vn 0.9129 0.2494 -0.3230
vn 0.1298 -0.1738 0.9762
vn 0.9421 0.3353 -0.0028
vn -0.9451 -0.2364 -0.2254
vn -0.9219 -0.0752 -0.3802
vn -0.7028 -0.4919 -0.5139
vn 0.8168 0.5365 0.2124
vn 0.9378 0.2770 0.2092
vn -0.7624 0.6435 -0.0691
vn 0.1520 -0.6700 -0.7266
vn -0.8306 -0.5499 0.0881
vn 0.8737 -0.0762 -0.4804
vn 0.9936 0.1131 -0.0022
vn -0.0111 -0.7925 0.6097
vn -0.5494 -0.3497 -0.7589
vn 0.8870 -0.1200 -0.4460
vn -0.3726 0.4352 0.8196
vn 0.6045 0.6228 -0.4966
vn 0.5988 0.1982 -0.7760
vn 0.7885 0.2728 0.5513
vn -0.2085 -0.1494 -0.9665
vn 0.9688 0.0376 -0.2449
vn 0.9632 0.0704 -0.2594
vn 0.9839 -0.1410 -0.1098
vn -0.9942 -0.0884 -0.0617
vn -0.8248 -0.0392 -0.5641
vn -0.7816 0.3604 -0.5091
vn -0.6349 0.4971 -0.5914
vn 0.0332 0.5477 0.8360
vn -0.7051 -0.6853 0.1825
vn 0.0375 -0.9670 0.2521
vn -0.6119 0.6329 0.4744
vn -0.8674 -0.1119 0.4849
vn -0.8320 0.5517 0.0591
vn -0.7271 -0.1128 -0.6772
vn -0.3207 -0.8382 0.4411
vn 0.4086 -0.7437 -0.5291
vn 0.7978 0.5978 -0.0788
vn 0.8620 0.1434 0.4863
vn 0.9106 0.2219 0.3488
vn 0.7483 -0.3332 0.5737
vn -0.6054 -0.1814 0.7750
vn -0.8311 -0.0035 0.5560
vn -0.5356 -0.7347 -0.4163
vn -0.8783 0.0803 0.4713
vn -0.1414 -0.9831 -0.1160
vn 0.1673 0.2634 -0.9501
vn 0.5365 0.0818 0.8399
vn 0.9012 0.3958 -0.1769
vn 0.4668 0.6180 0.6326
vn 0.9125 -0.0294 0.4081
vn 0.7278 -0.4502 0.5173
vn -0.9160 -0.2414 0.3203
vn 0.9638 0.2194 -0.1515
vn -0.1400 -0.5615 0.8155
vn -0.9665 -0.0509 -0.2515
vn 0.5596 0.1132 -0.8210
vn 0.7953 -0.4342 0.4231
vn 0.0104 -0.8562 0.5166
vn 0.8583 0.5120 0.0341
vn -0.5201 -0.6589 -0.5434
vn 0.1968 -0.4913 0.8484
vn 0.4666 -0.6980 0.5432
vn 0.8588 -0.0308 0.5115
vn 0.9292 -0.2986 -0.2177
vn 0.9697 -0.1697 -0.1757
vn 0.9403 -0.1815 -0.2878
vn -0.8183 0.4849 -0.3086
vn -0.0807 0.5594 0.8249
vn 0.8162 -0.0597 0.5747
vn 0.9843 0.1383 0.1096
vn -0.7790 0.0574 0.6244
vn -0.1209 -0.4193 -0.8997
vt 0.162777 0.574575
vt 0.200226 0.521810
vt 0.218034 0.567219
vt 0.073715 0.405179
vt 0.066873 0.452242
vt 0.048586 0.440640
vt 0.050160 0.462264
vt 0.923630 0.420398
vt 0.911524 0.389096
vt 0.938047 0.376022
vt 0.292546 0.565905
vt 0.258703 0.582363
vt 0.262182 0.537588
vt 0.287468 0.598122
vt 0.907690 0.279262
vt 0.886515 0.319831
vt 0.896434 0.229272
vt 0.060546 0.290352
vt 0.070163 0.346381
vt 0.030118 0.315768
vt 0.904283 0.230032
vt 0.960103 0.314970
vt 0.972354 0.341114
vt 0.930570 0.367772
vt 0.109756 0.298232
vt 0.155568 0.265125
vt 0.181044 0.324625
vt 0.122483 0.004130
vt 0.118736 0.013556
vt 0.113416 0.001703
vt 0.163547 0.898112
vt 0.154537 0.842045
vt 0.198820 0.873850
vt 0.919192 0.322613
vt 0.893924 0.939189
vt 0.907269 0.959553
vt 0.887722 0.971467
vt 0.349168 0.199969
vt 0.361473 0.168890
vt 0.384371 0.194042
vt 0.204018 0.263444
vt 0.561261 0.883483
vt 0.602108 0.952287
vt 0.560106 0.941462
vt 0.197151 0.970000
vt 0.216602 0.935195
vt 0.282708 0.958105
vt 0.037930 0.233339
vt 0.060459 0.242958
vt 0.017900 0.284451
vt 0.172545 0.238941
vt 0.874958 0.365609
vt 0.863727 0.393390
vt 0.855583 0.355932
vt 0.339829 0.451894
vt 0.322502 0.411685
vt 0.320286 0.355406
vt 0.067539 0.084203
vt 0.107710 0.102329
vt 0.084277 0.127398
vt 0.204897 0.215416
vt 0.168713 0.168462
vt 0.228700 0.153769
vt 0.512968 0.971002
vt 0.531911 0.925051
vt 0.560536 0.946190
vt 0.235914 0.202679
vt 0.462501 0.925602
vt 0.482464 0.944775
vt 0.381789 0.394176
vt 0.825614 0.663989
vt 0.823405 0.628906
vt 0.835912 0.656523
vt 0.482766 0.523124
vt 0.444879 0.550830
vt 0.445096 0.520001
vt 0.806596 0.885104
vt 0.883505 0.891778
vt 0.855905 0.905734
vt 0.896818 0.919295
vt 0.598585 0.098998
vt 0.579830 0.096152
vt 0.582483 0.076552
vt 0.241853 0.229604
vt 0.275584 0.167603
vt 0.421608 0.484162
vt 0.389089 0.475485
vt 0.408443 0.432017
vt 0.378928 0.056708
vt 0.396950 0.065793
vt 0.376127 0.107812
vt 0.556742 0.827746
vt 0.563258 0.873087
vt 0.538291 0.808636
vt 0.963402 0.606320
vt 0.952620 0.595862
vt 0.959905 0.567382
vt 0.397659 0.367406
vt 0.930762 0.872004
vt 0.995392 0.872538
vt 0.950426 0.906644
vt 0.483973 0.436265
vt 0.463512 0.400551
vt 0.516847 0.432296
vt 0.521611 0.394841
vt 0.466135 0.363108
vt 0.303974 0.132768
vt 0.325509 0.114427
vt 0.328181 0.146741
vt 0.931603 0.849279
vt 0.982782 0.832954
vt 0.872185 0.598519
vt 0.910314 0.612259
vt 0.920084 0.635481
vt 0.685986 0.755217
vt 0.650173 0.751508
vt 0.674399 0.712732
vt 0.715194 0.602584
vt 0.694589 0.592026
vt 0.730731 0.539482
vt 0.294607 0.145362
vt 0.311521 0.176368
vt 0.294771 0.222287
vt 0.277611 0.162683
vt 0.708792 0.717168
vt 0.799636 0.728306
vt 0.730222 0.744178
vt 0.975832 0.821681
vt 0.937551 0.814996
vt 0.329427 0.276106
vt 0.334865 0.241927
vt 0.989605 0.803536
vt 0.493620 0.335090
vt 0.551257 0.377637
vt 0.298450 0.257544
vt 0.614426 0.436783
vt 0.605531 0.389866
vt 0.624110 0.421883
vt 0.647887 0.392884
vt 0.656081 0.434863
vt 0.675424 0.387635
vt 0.701014 0.346855
vt 0.714644 0.383290
vt 0.823068 0.048847
vt 0.835236 0.077721
vt 0.808119 0.067154
vt 0.488198 0.295077
vt 0.537487 0.310541
vt 0.601068 0.352355
vt 0.911442 0.721354
vt 0.877221 0.729664
vt 0.884183 0.714362
vt 0.032584 0.153390
vt 0.023082 0.122415
vt 0.045115 0.128313
vt 0.762953 0.654778
vt 0.706519 0.645432
vt 0.741732 0.608299
vt 0.605531 0.353497
vt 0.622427 0.356281
vt 0.923256 0.685648
vt 0.893013 0.638061
vt 0.962458 0.638312
vt 0.286747 0.685706
vt 0.246836 0.710963
vt 0.249361 0.644022
vt 0.805392 0.015792
vt 0.862382 0.045959
vt 0.418525 0.044710
vt 0.473478 0.115180
vt 0.422677 0.108828
vt 0.001523 0.920367
vt 0.018075 0.920132
vt 0.008273 0.977830
vt 0.966632 0.087588
vt 0.938221 0.058100
vt 0.957608 0.048066
vt 0.210471 0.678874
vt 0.151470 0.682507
vt 0.687205 0.001509
vt 0.727469 0.014324
vt 0.686235 0.008511
vt 0.584501 0.277564
vt 0.500866 0.260581
vt 0.505275 0.196830
vt 0.060300 0.748976
vt 0.101045 0.724548
vt 0.045541 0.781276
vt 0.518274 0.080670
vt 0.525502 0.111209
vt 0.752498 0.001509
vt 0.116481 0.682574
vt 0.148131 0.719178
vt 0.604550 0.109032
vt 0.629543 0.079660
vt 0.668322 0.136755
vt 0.034929 0.559671
vt 0.052131 0.522018
vt 0.097138 0.567087
vt 0.040101 0.510858
vt 0.026596 0.524467
vt 0.236846 0.553754
vt 0.152104 0.634195
vt 0.097369 0.597619
vt 0.121585 0.599342
vt 0.240359 0.485953
vt 0.192926 0.457098
vt 0.253449 0.420439
vt 0.665563 0.910971
vt 0.749636 0.941431
vt 0.702058 0.949349
vt 0.693827 0.858644
vt 0.824840 0.931978
vt 0.189244 0.905250
vt 0.214084 0.871293
vt 0.809921 0.890065
vt 0.004283 0.463750
vt 0.037821 0.461204
vt 0.018873 0.506695
vt 0.148568 0.001633
vt 0.169486 0.007323
vt 0.123518 0.017695
vt 0.904511 0.443475
vt 0.930453 0.444894
vt 0.147682 0.874376
vt 0.938855 0.293228
vt 0.961954 0.251015
vt 0.604479 0.876426
vt 0.460881 0.962606
vt 0.422145 0.958130
vt 0.913465 0.053877
vt 0.931966 0.085929
vt 0.906396 0.070830
vt 0.839421 0.370528
vt 0.103220 0.949445
vt 0.160660 0.929745
vt 0.147483 0.975548
vt 0.120926 0.241012
vt 0.093235 0.262313
vt 0.097460 0.881343
vt 0.111901 0.915765
vt 0.938307 0.232062
vt 0.962943 0.186329
vt 0.222330 0.900731
vt 0.246213 0.914889
vt 0.338516 0.173056
vt 0.310876 0.168806
vt 0.323001 0.155315
vt 0.216734 0.121823
vt 0.835096 0.603347
vt 0.032263 0.196937
vt 0.008798 0.230087
vt 0.412821 0.547672
vt 0.913878 0.543707
vt 0.877200 0.508268
vt 0.884332 0.504144
vt 0.440000 0.455161
vt 0.475877 0.452935
vt 0.455405 0.477937
vt 0.800826 0.634084
vt 0.816574 0.606443
vt 0.513838 0.554978
vt 0.489161 0.531467
vt 0.504436 0.482497
vt 0.255120 0.262026
vt 0.275217 0.227348
vt 0.291793 0.263622
vt 0.461623 0.422716
vt 0.426732 0.418546
vt 0.440529 0.393186
vt 0.507704 0.786874
vt 0.478101 0.793968
vt 0.484576 0.736143
vt 0.477707 0.467847
vt 0.497881 0.493780
vt 0.857520 0.836552
vt 0.416155 0.713860
vt 0.447750 0.679832
vt 0.427931 0.362510
vt 0.390762 0.349636
vt 0.401830 0.299481
vt 0.366241 0.288406
vt 0.607571 0.767399
vt 0.655984 0.804265
vt 0.765540 0.605243
vt 0.770285 0.548168
vt 0.589107 0.470570
vt 0.550947 0.490635
vt 0.560430 0.458719
vt 0.792194 0.475385
vt 0.750602 0.481884
vt 0.741899 0.423990
vt 0.601300 0.435910
vt 0.368951 0.251402
vt 0.436334 0.243724
vt 0.822204 0.136603
vt 0.763657 0.106605
vt 0.806384 0.095115
vt 0.610646 0.473552
vt 0.062175 0.582244
vt 0.017553 0.608834
vt 0.035301 0.565017
vt 0.690381 0.406259
vt 0.663631 0.410775
vt 0.916791 0.123545
vt 0.951582 0.108781
vt 0.923541 0.147041
vt 0.045485 0.624310
vt 0.020814 0.700770
vt 0.383911 0.891719
vt 0.446422 0.884400
vt 0.427900 0.916099
vt 0.400812 0.084105
vt 0.418437 0.149650
vt 0.437532 0.139949
vt 0.851401 0.768964
vt 0.854806 0.750951
vt 0.877001 0.741548
vt 0.869853 0.096420
vt 0.899901 0.071058
vt 0.887352 0.135374
vt 0.436733 0.178111
vt 0.630114 0.713119
vt 0.647647 0.740880
vt 0.622161 0.721756
vt 0.930756 0.028231
vt 0.908659 0.042714
vt 0.049600 0.706751
vt 0.060985 0.691252
vt 0.944637 0.082824
vt 0.105568 0.666956
vt 0.097680 0.685462
vt 0.291493 0.843608
vt 0.317305 0.809981
vt 0.319144 0.859980
vt 0.549256 0.140227
vt 0.576585 0.728917
vt 0.533554 0.751677
vt 0.533659 0.712231
vt 0.575325 0.613449
vt 0.533605 0.662933
vt 0.546234 0.604159
vt 0.556345 0.662407
vt 0.131202 0.460151
vt 0.162897 0.486411
vt 0.150814 0.414006
vt 0.183875 0.394851
vt 0.135205 0.355123
vt 0.107119 0.395030
vt 0.872448 0.353522
vt 0.890829 0.345762
vt 0.673195 0.973698
vt 0.023955 0.383232
vt 0.001639 0.355762
vt 0.146020 0.202153
vt 0.127836 0.142991
vt 0.165732 0.121011
vt 0.263385 0.360912
vt 0.251138 0.308987
vt 0.114724 0.220631
vt 0.882697 0.323388
vt 0.850405 0.312389
vt 0.884367 0.295545
vt 0.472303 0.045658
vt 0.450422 0.023773
vt 0.488113 0.028837
vt 0.125948 0.068226
vt 0.146282 0.091534
vt 0.097130 0.067422
vt 0.397535 0.118498
vt 0.961636 0.503374
vt 0.973215 0.532579
vt 0.001505 0.138582
vt 0.015493 0.162131
vt 0.010023 0.197979
vt 0.080745 0.031575
vt 0.038471 0.038776
vt 0.950175 0.956275
vt 0.920714 0.968793
vt 0.913270 0.958185
vt 0.186744 0.057505
vt 0.548261 0.050978
vt 0.539940 0.065398
vt 0.518241 0.038071
vt 0.387010 0.545026
vt 0.417556 0.520890
vt 0.455115 0.483806
vt 0.826300 0.542802
vt 0.807436 0.423336
vt 0.833052 0.423741
vt 0.833616 0.468478
vt 0.538349 0.562319
vt 0.521353 0.494556
vt 0.513150 0.594618
vt 0.241005 0.068428
vt 0.272078 0.096238
vt 0.249536 0.113509
vt 0.812400 0.274664
vt 0.787528 0.305351
vt 0.823316 0.815400
vt 0.822759 0.854234
vt 0.782418 0.839513
vt 0.327965 0.112890
vt 0.373854 0.078407
vt 0.344430 0.129363
vt 0.834502 0.212251
vt 0.768873 0.151830
vt 0.858708 0.180777
vt 0.898932 0.172784
vt 0.918799 0.188818
vt 0.880515 0.210613
vt 0.470112 0.871718
vt 0.466279 0.828449
vt 0.512605 0.833785
vt 0.751393 0.369944
vt 0.783449 0.384569
vt 0.744833 0.389802
vt 0.785210 0.057831
vt 0.736251 0.057289
vt 0.094293 0.826267
vt 0.054359 0.794040
vt 0.116937 0.767720
vt 0.486387 0.636564
vt 0.503378 0.658019
vt 0.467354 0.640821
vt 0.503388 0.627732
vt 0.742601 0.339929
vt 0.392279 0.215478
vt 0.434051 0.597901
vt 0.396344 0.570000
vt 0.453616 0.568290
vt 0.916396 0.776285
vt 0.906564 0.785311
vt 0.668337 0.549474
vt 0.671072 0.490386
vt 0.296715 0.746191
vt 0.348535 0.685042
vt 0.365006 0.757079
vt 0.338801 0.285705
vt 0.471890 0.010064
vt 0.477076 0.024404
vt 0.405842 0.001621
vt 0.024884 0.746299
vt 0.425493 0.929114
vt 0.421440 0.954121
vt 0.405787 0.908742
vt 0.676160 0.450358
vt 0.714234 0.474558
vt 0.679381 0.330732
vt 0.902186 0.694106
vt 0.967059 0.718638
vt 0.971565 0.665495
vt 0.823672 0.690377
vt 0.831237 0.722798
vt 0.832878 0.005538
vt 0.911802 0.051108
vt 0.635276 0.613750
vt 0.654448 0.573000
vt 0.384441 0.966385
vt 0.381346 0.906972
vt 0.338735 0.313475
vt 0.321350 0.294136
vt 0.360830 0.283556
vt 0.200474 0.733441
vt 0.244199 0.765798
vt 0.257676 0.824178
vt 0.597706 0.508330
vt 0.610044 0.566858
vt 0.576183 0.514922
vt 0.558592 0.685159
vt 0.704264 0.211173
vt 0.674820 0.223823
vt 0.126172 0.509004
vt 0.838324 0.981068
vt 0.860316 0.420365
vt 0.868329 0.462219
vt 0.838382 0.434457
vt 0.542485 0.780803
vt 0.565580 0.764569
vt 0.577834 0.786328
vt 0.336860 0.558793
vt 0.865028 0.238270
vt 0.888243 0.271228
vt 0.468388 0.978300
vt 0.408642 0.980286
vt 0.911004 0.305359
vt 0.547122 0.060529
vt 0.120224 0.858742
vt 0.119163 0.810637
vt 0.397843 0.170698
vt 0.287177 0.295673
vt 0.278261 0.892280
vt 0.313876 0.900275
vt 0.294750 0.938695
vt 0.036674 0.094876
vt 0.001505 0.175810
vt 0.838648 0.262160
vt 0.996373 0.552774
vt 0.868716 0.499665
vt 0.484059 0.669058
vt 0.525322 0.710549
vt 0.877236 0.574157
vt 0.915332 0.528250
vt 0.226995 0.073028
vt 0.192991 0.053394
vt 0.210377 0.048051
vt 0.277761 0.110868
vt 0.267683 0.059256
vt 0.288772 0.068554
vt 0.140889 0.033560
vt 0.157585 0.027209
vt 0.158879 0.048546
vt 0.981273 0.614730
vt 0.667213 0.833064
vt 0.590876 0.825794
vt 0.125886 0.025131
vt 0.336961 0.317605
vt 0.820907 0.388511
vt 0.859806 0.227724
vt 0.832089 0.237127
vt 0.403242 0.661430
vt 0.366767 0.634867
vt 0.426922 0.624272
vt 0.781135 0.258497
vt 0.428219 0.784222
vt 0.716565 0.105766
vt 0.120391 0.791077
vt 0.465701 0.273394
vt 0.450700 0.310135
vt 0.333114 0.958835
vt 0.337538 0.932682
vt 0.716340 0.310490
vt 0.715572 0.404494
vt 0.680575 0.424250
vt 0.030306 0.909774
vt 0.046582 0.944542
vt 0.020185 0.099299
vt 0.026071 0.085037
vt 0.029790 0.086604
vt 0.064672 0.633699
vt 0.093257 0.635387
vt 0.875271 0.026249
vt 0.867935 0.011910
vt 0.902975 0.687326
vt 0.868136 0.641441
vt 0.311658 0.891144
vt 0.343633 0.870954
vt 0.334074 0.920352
vt 0.678304 0.287058
vt 0.664599 0.322744
vt 0.631608 0.334981
vt 0.276951 0.876878
vt 0.584081 0.670269
vt 0.616173 0.180714
vt 0.751151 0.232596
vt 0.770897 0.204936
vt 0.774886 0.238948
vt 0.158525 0.609022
vt 0.583659 0.764422
vt 0.578169 0.752908
vt 0.765286 0.977029
vt 0.650114 0.997869
vt 0.997890 0.284175
vt 0.835610 0.390950
vt 0.134020 0.918581
vt 0.104395 0.174398
vt 0.037494 0.118135
vt 0.212563 0.024316
vt 0.177145 0.048246
vt 0.707510 0.265680
vt 0.722564 0.242732
vt 0.753805 0.244300
vt 0.187875 0.095209
vt 0.005342 0.023399
vt 0.029229 0.001781
vt 0.017939 0.036925
vt 0.514844 0.001629
vt 0.553792 0.005059
vt 0.510780 0.029888
vt 0.958341 0.138198
vt 0.926738 0.174882
vt 0.300490 0.029786
vt 0.276007 0.010465
vt 0.307047 0.004300
vt 0.804522 0.344114
vt 0.086014 0.760140
vt 0.442195 0.854610
vt 0.447502 0.820212
vt 0.001659 0.658889
vt 0.014752 0.603393
vt 0.601147 0.499055
vt 0.762402 0.762470
vt 0.364392 0.214814
vt 0.949247 0.793920
vt 0.020185 0.066860
vt 0.010297 0.668096
vt 0.021026 0.064023
vt 0.033473 0.044021
vt 0.033474 0.086922
vt 0.650957 0.368372
vt 0.416162 0.853888
vt 0.437565 0.024623
vt 0.476234 0.051991
vt 0.699279 0.692766
vt 0.815642 0.665508
vt 0.613991 0.047854
vt 0.585357 0.001528
vt 0.647408 0.006646
vt 0.226733 0.871639
vt 0.237899 0.846445
vt 0.249110 0.857524
vt 0.209202 0.829872
vt 0.672985 0.080081
vt 0.700505 0.083182
vt 0.706474 0.130865
vt 0.109162 0.543346
vt 0.032945 0.001815
vt 0.074214 0.011777
vt 0.020965 0.046534
vt 0.224870 0.603406
vt 0.188384 0.624558
vt 0.260039 0.608597
vt 0.311714 0.530678
vt 0.351777 0.508985
vt 0.711558 0.203566
vt 0.693993 0.179190
vt 0.718906 0.179430
vt 0.146913 0.931370
vt 0.095678 0.947052
vt 0.071501 0.947959
vt 0.891873 0.437351
vt 0.535682 0.979341
vt 0.544876 0.073121
vt 0.562513 0.809504
vt 0.538029 0.795160
vt 0.539495 0.789393
vt 0.535743 0.796435
vt 0.298796 0.076665
vt 0.001795 0.005160
vt 0.266378 0.139658
vt 0.958191 0.114454
vt 0.973467 0.128672
vt 0.860781 0.250580
vt 0.239676 0.098251
vt 0.216646 0.088438
vt 0.242248 0.083892
vt 0.266092 0.200013
vt 0.847071 0.356799
vt 0.705844 0.043702
vt 0.348270 0.237630
vt 0.029915 0.839349
vt 0.786160 0.796801
vt 0.810674 0.772660
vt 0.808273 0.797891
vt 0.629098 0.441368
vt 0.402451 0.979478
vt 0.839503 0.736426
vt 0.957262 0.354975
vt 0.996815 0.372031
vt 0.957184 0.372024
vt 0.853043 0.117744
vt 0.699902 0.286218
vt 0.942616 0.738137
vt 0.975926 0.745423
vt 0.583859 0.598101
vt 0.554221 0.091166
vt 0.705857 0.984480
vt 0.673653 0.140787
vt 0.574171 0.805794
vt 0.001525 0.417910
vt 0.015447 0.377822
vt 0.024003 0.414706
vt 0.551915 0.980253
vt 0.377500 0.044967
vt 0.337175 0.045606
vt 0.330959 0.036552
vt 0.009206 0.077989
vt 0.994804 0.179027
vt 0.068594 0.210347
vt 0.044544 0.161579
vt 0.245737 0.867035
vt 0.908146 0.917083
vt 0.706145 0.802065
vt 0.703752 0.837093
vt 0.103435 0.001885
vt 0.522361 0.491130
vt 0.503714 0.800247
vt 0.517661 0.888182
vt 0.531029 0.903819
vt 0.492932 0.912619
vt 0.868944 0.156228
vt 0.908707 0.164889
vt 0.740909 0.275762
vt 0.708413 0.638681
vt 0.282455 0.633384
vt 0.671561 0.353005
vt 0.626034 0.269372
vt 0.743225 0.979684
vt 0.492431 0.001508
vt 0.474086 0.005804
vt 0.425051 0.001514
vt 0.023231 0.115110
vt 0.736668 0.202197
vt 0.940901 0.490001
vt 0.904105 0.470116
vt 0.759471 0.845855
vt 0.359078 0.062968
vt 0.876864 0.931741
vt 0.325788 0.179053
vt 0.997768 0.509133
vt 0.943613 0.475864
vt 0.986631 0.467778
vt 0.300040 0.134280
vt 0.910210 0.243561
vt 0.924767 0.996666
vt 0.983942 0.945981
vt 0.917058 0.579663
vt 0.777858 0.208429
vt 0.129377 0.757652
vt 0.093997 0.740493
vt 0.054098 0.839504
vt 0.371008 0.824077
vt 0.265723 0.189758
vt 0.275831 0.174297
vt 0.275831 0.205218
vt 0.271481 0.001505
vt 0.268982 0.005913
vt 0.242915 0.001508
vt 0.627624 0.681934
vt 0.641537 0.671668
vt 0.567056 0.050341
vt 0.548188 0.012975
vt 0.565525 0.196450
vt 0.547709 0.767505
vt 0.887207 0.395266
vt 0.880646 0.419780
vt 0.889866 0.219472
vt 0.997894 0.218335
vt 0.068381 0.923155
vt 0.350857 0.270314
vt 0.332333 0.269630
vt 0.350857 0.249333
vt 0.304516 0.047540
vt 0.909795 0.552837
vt 0.358042 0.001506
vt 0.347440 0.012877
vt 0.307346 0.001511
vt 0.269937 0.158879
vt 0.269937 0.128187
vt 0.286864 0.149843
vt 0.787298 0.217018
vt 0.917700 0.001898
vt 0.950942 0.021095
vt 0.929550 0.020539
vt 0.107595 0.850450
vt 0.475436 0.614489
vt 0.001480 0.110332
vt 0.001480 0.093403
vt 0.007723 0.102559
vt 0.989000 0.692710
vt 0.878616 0.768182
vt 0.959427 0.023011
vt 0.994677 0.066641
vt 0.636208 0.642912
vt 0.723770 0.680113
vt 0.884421 0.672024
vt 0.585240 0.697614
vt 0.600074 0.649337
vt 0.569494 0.559390
vt 0.157235 0.743222
vt 0.184821 0.793440
vt 0.219431 0.791365
vt 0.153447 0.775737
vt 0.164410 0.841225
vt 0.295175 0.490287
vt 0.618174 0.987414
vt 0.951890 0.388255
vt 0.997789 0.406474
vt 0.266862 0.635395
vt 0.331934 0.610146
vt 0.583659 0.834113
vt 0.882879 0.470137
vt 0.502889 0.455191
vt 0.432875 0.468004
vt 0.726276 0.156796
vt 0.368647 0.317643
vt 0.561875 0.440604
vt 0.331748 0.617320
vt 0.738721 0.015875
vt 0.467965 0.903761
vt 0.399595 0.064264
vt 0.379035 0.028388
vt 0.369133 0.001821
vt 0.085261 0.607832
vt 0.147845 0.049850
vt 0.128470 0.065096
vt 0.134438 0.053478
vt 0.015928 0.981787
vt 0.612305 0.692351
vt 0.635049 0.709316
vt 0.631783 0.455524
vt 0.629521 0.503148
vt 0.703347 0.058868
vt 0.707766 0.075364
vt 0.679525 0.076513
vt 0.612331 0.637446
vt 0.505701 0.028303
vt 0.533732 0.062402
vt 0.216695 0.866910
vt 0.867442 0.985663
vt 0.055256 0.936900
vt 0.047694 0.158762
vt 0.047406 0.130552
vt 0.089940 0.173086
vt 0.746464 0.232694
vt 0.984115 0.505802
vt 0.146380 0.020264
vt 0.158879 0.012621
vt 0.202451 0.894678
vt 0.424974 0.424222
vt 0.406336 0.127298
vt 0.400753 0.153029
vt 0.400754 0.096195
vt 0.732477 0.802064
vt 0.583387 0.411024
vt 0.648370 0.700669
vt 0.674810 0.696988
vt 0.675891 0.646237
vt 0.916173 0.724548
vt 0.623424 0.756341
vt 0.587174 0.749268
vt 0.672011 0.078769
vt 0.639590 0.070975
vt 0.702620 0.054086
vt 0.543384 0.557328
vt 0.891160 0.328200
vt 0.930831 0.434284
vt 0.309975 0.106960
vt 0.335714 0.102555
vt 0.297262 0.132677
vt 0.128025 0.031513
vt 0.226309 0.001520
vt 0.237608 0.042043
vt 0.534920 0.455059
vt 0.565973 0.517025
vt 0.006620 0.071105
vt 0.005034 0.081646
vt 0.005034 0.068889
vt 0.122319 0.795876
vt 0.896496 0.001511
vt 0.855935 0.009948
vt 0.830198 0.001514
vt 0.516311 0.643390
vt 0.661502 0.036885
vt 0.709203 0.014702
vt 0.700270 0.049308
vt 0.987487 0.334454
vt 0.993929 0.060812
vt 0.962101 0.014141
vt 0.993929 0.001805
vt 0.715979 0.172933
vt 0.698297 0.153129
vt 0.715979 0.118448
vt 0.664478 0.663610
vt 0.914006 0.001704
vt 0.692247 0.258133
vt 0.892340 0.396271
vt 0.018108 0.110589
vt 0.029741 0.182534
vt 0.021338 0.177238
vt 0.009826 0.116296
vt 0.056436 0.178909
vt 0.058476 0.269211
vt 0.039494 0.266549
vt 0.058476 0.248109
vt 0.160436 0.039220
vt 0.169912 0.020909
vt 0.169912 0.046340
vt 0.608194 0.077093
vt 0.884888 0.559134
vt 0.535524 0.605563
vt 0.012488 0.571182
vt 0.939961 0.011675
vt 0.325668 0.979966
vt 0.291681 0.959620
vt 0.988079 0.724401
vt 0.035306 0.157079
vt 0.032540 0.176532
vt 0.027936 0.157079
vt 0.301257 0.932475
vt 0.128470 0.033592
vt 0.509624 0.001749
vt 0.634141 0.337691
vt 0.351716 0.013530
vt 0.371087 0.032983
vt 0.333168 0.032987
vt 0.360932 0.005768
vt 0.374159 0.011174
vt 0.123824 0.746765
vt 0.956425 0.376753
vt 0.088240 0.164998
vt 0.134488 0.211250
vt 0.118800 0.213514
vt 0.765111 0.205582
vt 0.702691 0.250065
vt 0.060652 0.186157
vt 0.868758 0.988175
vt 0.633480 0.067904
vt 0.613230 0.073651
vt 0.569775 0.067907
vt 0.562384 0.064872
vt 0.647462 0.064873
vt 0.400965 0.008997
vt 0.998365 0.156190
vt 0.969539 0.113606
vt 0.998360 0.066146
vt 0.965016 0.115806
vt 0.863239 0.615509
vt 0.367574 0.315278
vt 0.980074 0.928234
vt 0.987040 0.922014
vt 0.395724 0.186178
vt 0.512410 0.032469
vt 0.373019 0.075252
vt 0.945426 0.911208
vt 0.343750 0.017669
vt 0.942694 0.126676
vt 0.777649 0.001527
vt 0.299200 0.002317
vt 0.251972 0.064346
vt 0.220576 0.054281
vt 0.311299 0.029972
vt 0.089837 0.608776
vt 0.003638 0.062016
vt 0.001504 0.085750
vt 0.001507 0.021671
s 1
usemtl Rabbit_Tris_Material
f 112/1/1 102/2/2 88/3/3
f 262/4/4 194/5/5 263/6/6
f 194/5/5 222/7/7 263/6/6
f 211/8/8 218/9/9 206/10/10
f 73/11/11 64/12/12 74/13/13
f 42/14/14 64/12/12 73/11/11
f 198/15/15 225/16/16 240/17/17
f 374/18/18 316/19/19 390/20/20
f 213/21/21 198/15/15 240/17/17
f 205/22/22 198/23/15 213/24/21
f 333/25/23 307/26/24 164/27/25
f 240/28/17 249/29/26 213/30/21
f 335/31/27 346/32/28 289/33/29
f 217/34/30 205/22/22 213/24/21
f 261/35/31 289/36/29 246/37/32
f 261/38/31 304/39/33 302/40/34
f 164/27/25 307/26/24 251/41/35
f 25/42/36 45/43/37 35/44/38
f 425/45/39 429/46/40 460/47/41
f 449/48/42 426/49/43 427/50/44
f 251/41/35 307/26/24 328/51/45
f 227/52/46 276/53/47 191/54/48
f 80/55/49 98/56/50 120/57/51
f 479/58/52 464/59/53 458/60/54
f 271/61/55 367/62/56 323/63/57
f 408/64/58 411/65/59 450/66/60
f 281/67/61 271/61/55 323/63/57
f 337/68/62 411/65/59 357/69/63
f 75/70/64 80/55/49 120/57/51
f 388/71/65 405/72/66 392/73/67
f 3/74/68 9/75/69 12/76/70
f 148/77/71 196/78/72 179/79/73
f 196/78/72 277/80/74 179/79/73
f 438/81/75 447/82/76 450/83/60
f 235/84/77 281/67/61 272/85/78
f 38/86/79 52/87/80 53/88/81
f 438/89/75 411/90/59 358/91/82
f 9/92/69 3/93/68 5/94/83
f 110/95/84 123/96/85 127/97/86
f 84/98/87 53/88/81 75/70/64
f 266/99/88 362/100/89 348/101/90
f 53/102/81 84/103/87 56/104/91
f 56/104/91 84/103/87 65/105/92
f 89/106/93 65/105/92 84/103/87
f 16/107/94 14/108/95 7/109/96
f 362/100/89 293/110/97 371/111/98
f 124/112/99 136/113/100 122/114/101
f 79/115/102 59/116/103 57/117/104
f 371/118/98 397/119/105 441/120/106
f 431/121/107 410/122/108 361/123/109
f 395/124/110 431/121/107 361/123/109
f 92/125/111 134/126/112 90/127/113
f 382/128/114 371/111/98 267/129/115
f 312/130/116 361/123/109 366/131/117
f 414/132/118 371/111/98 382/128/114
f 104/133/119 66/134/120 65/105/92
f 314/135/121 361/123/109 312/130/116
f 169/136/122 180/137/123 154/138/124
f 154/138/124 174/139/125 161/140/126
f 372/141/127 459/142/128 440/143/129
f 455/144/130 442/145/131 463/146/132
f 130/147/133 103/148/134 104/133/119
f 103/148/134 72/149/135 66/134/120
f 273/150/136 180/151/123 182/152/137
f 214/153/138 175/154/139 199/155/140
f 372/156/127 342/157/141 420/158/142
f 273/159/136 250/160/143 180/137/123
f 383/161/144 326/162/145 414/163/118
f 47/164/146 60/165/147 76/166/148
f 468/167/149 417/168/150 455/144/130
f 419/169/151 279/170/152 354/171/153
f 200/172/154 248/173/155 204/174/156
f 280/175/157 296/176/158 297/177/159
f 91/178/160 76/166/148 60/165/147
f 91/178/160 129/179/161 76/166/148
f 221/180/162 197/181/163 204/182/156
f 109/183/164 155/184/165 178/185/166
f 236/186/167 223/187/168 221/188/162
f 308/189/169 278/190/170 279/170/152
f 197/181/163 221/180/162 223/191/168
f 183/192/171 129/179/161 125/193/172
f 181/194/173 192/195/174 156/196/175
f 158/197/176 176/198/177 138/199/178
f 206/200/10 176/198/177 215/201/179
f 74/13/13 95/202/180 102/2/2
f 82/203/181 128/204/182 113/205/183
f 114/206/184 142/207/185 100/208/186
f 71/209/187 105/210/188 82/211/181
f 77/212/189 132/213/190 105/210/188
f 302/214/34 335/31/27 289/33/29
f 289/33/29 261/215/31 302/214/34
f 77/212/189 105/210/188 71/209/187
f 77/212/189 118/216/191 132/213/190
f 258/217/192 225/218/16 269/219/193
f 275/220/194 291/221/195 249/222/26
f 210/223/196 211/8/8 186/224/197
f 346/32/28 335/31/27 368/225/198
f 220/226/199 224/227/200 205/22/22
f 39/228/201 71/209/187 45/43/37
f 357/69/63 352/229/202 317/230/203
f 275/231/194 350/232/204 291/233/195
f 191/54/48 276/53/47 177/234/205
f 328/235/45 381/236/206 339/237/207
f 381/236/206 429/46/40 425/45/39
f 359/238/208 328/51/45 307/26/24
f 426/49/43 359/238/208 373/239/209
f 418/240/210 368/225/198 406/241/211
f 224/227/200 252/242/212 284/243/213
f 429/46/40 443/244/214 466/245/215
f 301/246/216 306/247/217 331/248/218
f 323/63/57 367/62/56 379/249/219
f 392/73/67 405/72/66 412/250/220
f 53/88/81 52/87/80 75/70/64
f 465/251/221 449/48/42 453/252/222
f 12/76/70 9/75/69 22/253/223
f 143/254/224 148/255/71 157/256/225
f 5/257/83 22/258/223 9/259/69
f 348/260/90 400/261/226 405/72/66
f 272/262/78 244/263/227 235/264/77
f 193/265/228 201/266/229 160/267/230
f 15/268/231 5/257/83 8/269/232
f 14/270/95 15/268/231 8/269/232
f 15/271/231 14/272/95 18/273/233
f 13/274/234 6/275/235 3/74/68
f 266/99/88 196/78/72 185/276/236
f 18/273/233 21/277/237 23/278/238
f 115/279/239 121/280/240 141/281/241
f 160/282/230 141/281/241 121/280/240
f 44/283/242 59/116/103 50/284/243
f 362/285/89 441/120/106 445/286/244
f 17/287/245 13/288/234 34/289/246
f 467/290/247 461/291/248 457/292/249
f 29/293/250 17/287/245 34/289/246
f 201/294/229 187/295/251 141/281/241
f 432/296/252 471/297/253 462/298/254
f 17/287/245 29/293/250 11/299/255
f 336/300/256 386/301/257 394/302/258
f 372/141/127 403/303/259 354/304/153
f 347/305/260 283/306/261 315/307/262
f 442/145/131 462/298/254 463/146/132
f 334/308/263 351/309/264 386/301/257
f 48/310/265 29/311/250 51/312/266
f 372/313/127 354/171/153 318/314/267
f 354/171/153 303/315/268 318/314/267
f 175/316/139 174/317/125 199/318/140
f 409/319/269 375/320/270 377/321/271
f 178/185/166 237/322/272 279/170/152
f 279/170/152 237/322/272 303/315/268
f 264/323/273 273/324/136 286/325/274
f 325/326/275 297/177/159 296/176/158
f 155/184/165 109/183/164 103/148/134
f 325/326/275 296/176/158 345/327/276
f 236/186/167 260/328/277 257/329/278
f 345/327/276 296/176/158 287/330/279
f 226/331/280 223/187/168 233/332/281
f 62/333/282 36/334/283 54/335/284
f 278/190/170 195/336/285 279/170/152
f 188/337/286 125/338/172 165/339/287
f 243/340/288 171/341/289 192/342/174
f 171/341/289 243/340/288 212/343/290
f 168/344/291 142/207/185 147/345/292
f 170/346/293 142/207/185 168/344/291
f 162/347/294 170/346/293 189/348/295
f 207/349/296 316/19/19 189/348/295
f 263/350/6 222/351/7 218/9/9
f 45/43/37 71/209/187 69/352/297
f 344/353/298 385/354/299 390/20/20
f 425/45/39 339/237/207 381/236/206
f 271/61/55 339/355/207 367/62/56
f 367/62/56 430/356/300 416/357/301
f 126/358/302 140/359/303 120/57/51
f 381/360/206 328/51/45 359/238/208
f 478/361/304 489/362/305 483/363/306
f 167/364/307 191/365/48 137/366/308
f 473/367/309 451/368/310 464/59/53
f 464/59/53 475/369/311 473/367/309
f 429/46/40 381/236/206 443/244/214
f 358/91/82 337/370/62 304/39/33
f 167/371/307 139/372/312 127/97/86
f 407/373/313 380/374/314 350/375/204
f 486/376/315 479/58/52 492/377/316
f 418/378/210 388/379/65 392/380/67
f 473/367/309 428/381/317 451/368/310
f 306/382/217 277/383/74 196/384/72
f 32/385/318 38/86/79 27/386/319
f 19/387/320 12/76/70 38/86/79
f 400/261/226 434/388/321 412/250/220
f 474/389/322 465/390/221 453/391/222
f 313/392/323 272/262/78 281/393/61
f 313/392/323 319/394/324 272/262/78
f 387/395/325 332/396/326 360/397/327
f 495/398/328 489/362/305 494/399/329
f 163/400/330 172/401/331 145/402/332
f 43/403/333 38/404/79 56/405/91
f 387/406/325 435/407/334 384/408/335
f 353/409/336 319/410/324 332/411/326
f 353/409/336 332/411/326 384/408/335
f 4/412/337 7/413/96 2/414/338
f 470/415/339 477/416/340 469/417/341
f 79/115/102 92/125/111 90/127/113
f 476/418/342 471/297/253 484/419/343
f 343/420/344 290/421/345 356/422/346
f 376/423/347 336/424/256 377/425/271
f 336/424/256 376/423/347 353/426/336
f 481/427/348 470/415/339 440/143/129
f 241/428/349 237/322/272 187/295/251
f 283/429/261 237/430/272 241/431/349
f 312/432/116 267/129/115 292/433/350
f 441/120/106 413/434/351 436/435/352
f 347/305/260 375/320/270 283/306/261
f 41/436/353 33/437/354 24/438/355
f 314/135/121 312/130/116 292/439/350
f 282/440/356 295/441/357 402/442/358
f 351/309/264 260/328/277 282/443/356
f 456/444/359 454/445/360 444/446/361
f 41/436/353 24/438/355 36/334/283
f 424/447/362 448/448/363 436/435/352
f 420/449/142 459/142/128 372/141/127
f 182/152/137 216/450/364 273/150/136
f 433/451/365 383/161/144 410/452/108
f 119/453/366 182/152/137 169/454/122
f 420/455/142 342/456/141 417/168/150
f 311/457/367 370/458/368 397/119/105
f 47/164/146 33/437/354 41/436/353
f 444/446/361 395/459/110 393/460/369
f 247/461/370 219/462/371 230/463/372
f 101/464/373 60/165/147 67/465/374
f 41/436/353 70/466/375 67/465/374
f 324/467/376 298/468/377 256/469/378
f 219/470/371 165/339/287 171/341/289
f 97/471/379 117/472/380 156/196/175
f 146/473/381 194/5/5 168/344/291
f 158/197/176 138/199/178 128/204/182
f 105/210/188 132/213/190 158/474/176
f 232/475/382 215/476/179 202/477/383
f 190/478/384 202/479/383 132/480/190
f 46/481/385 42/14/14 73/11/11
f 275/482/194 240/17/17 242/483/386
f 352/229/202 364/484/387 302/485/34
f 140/359/303 126/358/302 164/27/25
f 220/226/199 217/34/30 231/486/388
f 450/83/60 447/82/76 452/487/389
f 304/39/33 261/38/31 301/246/216
f 339/355/207 271/61/55 328/51/45
f 392/488/67 412/489/220 346/32/28
f 328/51/45 271/61/55 251/41/35
f 337/370/62 317/490/203 304/39/33
f 479/58/52 475/369/311 464/59/53
f 149/491/390 140/359/303 193/265/228
f 482/492/391 489/493/305 478/494/304
f 483/495/306 492/377/316 479/58/52
f 407/373/313 350/375/204 378/496/392
f 489/362/305 492/497/316 483/363/306
f 108/498/393 127/97/86 139/372/312
f 434/388/321 453/391/222 427/499/44
f 411/65/59 408/64/58 357/69/63
f 18/273/233 25/500/36 35/501/38
f 412/250/220 434/388/321 385/502/299
f 143/254/224 157/256/225 144/503/394
f 405/504/66 331/505/218 348/506/90
f 327/507/395 407/508/313 391/509/396
f 327/510/395 404/511/397 407/512/313
f 110/95/84 108/498/393 86/513/398
f 50/284/243 63/514/399 37/515/400
f 473/367/309 475/369/311 480/516/401
f 480/516/401 475/369/311 486/376/315
f 121/517/240 149/491/390 160/267/230
f 474/389/322 477/416/340 472/518/402
f 465/390/221 474/389/322 472/518/402
f 387/406/325 360/519/327 389/520/403
f 474/389/322 453/391/222 467/290/247
f 31/521/404 44/522/242 37/523/400
f 293/110/97 362/100/89 266/99/88
f 493/524/405 492/497/316 495/398/328
f 14/272/95 20/525/406 18/273/233
f 471/297/253 435/407/334 487/526/407
f 267/129/115 293/110/97 185/276/236
f 343/420/344 356/422/346 396/527/408
f 79/115/102 57/117/104 92/125/111
f 441/120/106 436/435/352 448/448/363
f 166/528/409 130/147/133 133/529/410
f 365/530/411 349/531/412 395/459/110
f 459/142/128 485/532/413 481/427/348
f 437/533/414 457/292/249 419/534/151
f 104/133/119 103/148/134 66/134/120
f 270/535/415 295/536/357 248/173/155
f 280/537/157 292/538/350 274/539/416
f 187/295/251 237/322/272 178/185/166
f 310/540/417 285/541/418 257/329/278
f 375/320/270 417/168/150 342/456/141
f 325/326/275 401/542/419 393/543/369
f 345/544/276 287/545/279 326/162/145
f 287/330/279 296/176/158 280/175/157
f 85/546/420 58/547/421 68/548/422
f 93/549/423 85/550/420 68/551/422
f 93/552/423 54/335/284 85/546/420
f 93/552/423 70/466/375 62/333/282
f 209/553/424 212/343/290 243/340/288
f 181/194/173 156/196/175 150/554/425
f 117/472/380 150/554/425 156/196/175
f 206/555/10 222/556/7 176/557/177
f 96/558/426 113/205/183 112/1/1
f 176/198/177 222/7/7 194/5/5
f 158/559/176 202/479/383 215/560/179
f 105/210/188 158/474/176 128/561/182
f 189/348/295 170/346/293 207/349/296
f 45/43/37 69/352/297 78/562/427
f 262/4/4 263/6/6 344/353/298
f 162/347/294 189/348/295 164/27/25
f 240/17/17 225/16/16 242/483/386
f 198/23/15 205/22/22 208/563/428
f 276/53/47 232/475/382 190/564/384
f 302/214/34 364/565/387 335/31/27
f 368/225/198 335/31/27 364/565/387
f 425/566/39 460/567/41 458/60/54
f 140/359/303 251/41/35 193/265/228
f 300/568/429 231/569/388 291/221/195
f 149/491/390 120/57/51 140/359/303
f 167/570/307 184/571/430 191/572/48
f 251/41/35 235/84/77 193/265/228
f 422/573/431 451/368/310 428/381/317
f 338/574/432 379/575/219 322/576/433
f 405/577/66 388/578/65 331/579/218
f 330/580/434 252/242/212 355/581/435
f 355/582/435 380/583/314 407/584/313
f 18/273/233 23/278/238 25/500/36
f 467/290/247 453/391/222 434/388/321
f 400/261/226 445/286/244 434/388/321
f 445/286/244 400/261/226 362/285/89
f 472/518/402 477/416/340 491/585/436
f 133/529/410 115/279/239 141/281/241
f 172/401/331 163/400/330 185/276/236
f 491/585/436 477/416/340 470/415/339
f 441/120/106 461/291/248 445/286/244
f 20/525/406 24/438/355 21/277/237
f 33/437/354 21/277/237 24/438/355
f 290/421/345 320/586/437 356/422/346
f 26/587/438 16/588/94 7/413/96
f 26/587/438 7/413/96 4/412/337
f 386/301/257 398/589/439 396/590/408
f 17/287/245 11/299/255 10/591/440
f 89/106/93 104/133/119 65/105/92
f 122/592/101 90/127/113 134/126/112
f 366/131/117 361/123/109 382/593/114
f 382/593/114 361/123/109 410/122/108
f 366/594/117 382/128/114 267/129/115
f 292/538/350 267/595/115 274/539/416
f 386/301/257 351/309/264 402/596/358
f 454/445/360 395/459/110 444/446/361
f 119/453/366 134/126/112 92/125/111
f 456/597/359 433/598/365 454/599/360
f 318/314/267 303/315/268 237/322/272
f 154/138/124 250/160/143 199/600/140
f 155/184/165 166/528/409 187/295/251
f 417/168/150 442/145/131 455/144/130
f 58/547/421 30/601/441 48/310/265
f 257/329/278 285/541/418 233/332/281
f 424/602/362 369/603/442 419/169/151
f 76/604/148 129/605/161 119/453/366
f 233/332/281 285/541/418 226/331/280
f 282/443/356 236/186/167 221/188/162
f 203/606/443 223/607/168 226/608/280
f 233/332/281 223/187/168 236/186/167
f 117/609/380 99/610/444 94/611/445
f 117/609/380 97/612/379 99/610/444
f 171/613/289 165/614/287 135/615/446
f 146/473/381 152/616/447 176/198/177
f 113/617/183 138/618/178 112/619/1
f 78/620/427 69/621/297 112/1/1
f 262/4/4 207/349/296 194/5/5
f 333/25/23 316/19/19 374/18/18
f 42/14/14 55/622/448 64/12/12
f 61/623/449 46/481/385 73/11/11
f 373/239/209 307/26/24 333/25/23
f 49/624/450 46/481/385 61/623/449
f 186/625/197 211/626/8 238/627/451
f 352/628/202 408/629/58 364/565/387
f 364/565/387 408/629/58 423/630/452
f 234/631/453 218/9/9 210/223/196
f 426/49/43 373/239/209 374/18/18
f 408/64/58 450/66/60 423/632/452
f 446/633/454 452/487/389 447/82/76
f 63/514/399 77/212/189 71/209/187
f 137/634/308 191/635/48 177/636/205
f 482/492/391 478/494/304 466/245/215
f 252/242/212 220/226/199 231/486/388
f 32/637/318 18/273/233 35/501/38
f 80/55/49 75/70/64 52/87/80
f 391/509/396 341/638/455 327/507/395
f 144/503/394 127/97/86 143/254/224
f 360/639/327 379/575/219 338/574/432
f 313/640/323 323/63/57 360/397/327
f 323/63/57 379/249/219 360/397/327
f 360/641/327 338/642/432 330/580/434
f 330/643/434 389/520/403 360/519/327
f 404/644/397 421/645/456 389/646/403
f 25/500/36 23/278/238 37/523/400
f 244/647/227 201/266/229 235/84/77
f 172/401/331 185/276/236 148/77/71
f 148/77/71 185/276/236 196/78/72
f 472/518/402 491/585/436 482/648/391
f 21/277/237 33/437/354 31/521/404
f 493/649/405 484/419/343 487/526/407
f 241/428/349 201/294/229 244/650/227
f 470/415/339 481/427/348 491/585/436
f 440/143/129 470/415/339 469/417/341
f 440/143/129 469/417/341 437/533/414
f 254/651/457 290/421/345 343/420/344
f 124/652/99 161/653/126 151/654/458
f 29/293/250 26/655/438 11/299/255
f 469/417/341 457/292/249 437/533/414
f 454/445/360 431/656/107 395/459/110
f 336/300/256 334/308/263 386/301/257
f 134/126/112 169/454/122 154/657/124
f 320/658/437 288/659/459 336/660/256
f 175/316/139 151/654/458 161/653/126
f 175/316/139 163/400/330 151/654/458
f 462/298/254 442/145/131 399/661/460
f 180/137/123 250/160/143 154/138/124
f 399/661/460 442/145/131 409/319/269
f 459/142/128 420/449/142 485/532/413
f 488/662/461 485/532/413 420/449/142
f 420/455/142 417/168/150 468/167/149
f 439/663/462 433/451/365 456/664/359
f 345/327/276 401/542/419 325/326/275
f 369/603/442 279/170/152 419/169/151
f 279/170/152 195/336/285 178/185/166
f 268/665/463 298/468/377 311/457/367
f 62/333/282 54/335/284 93/552/423
f 181/194/173 195/336/285 256/666/378
f 171/341/289 212/343/290 219/470/371
f 142/207/185 102/2/2 147/345/292
f 78/620/427 112/1/1 88/3/3
f 95/202/180 74/13/13 64/12/12
f 64/12/12 88/3/3 95/202/180
f 206/10/10 218/9/9 222/351/7
f 82/211/181 96/667/426 69/352/297
f 238/627/451 211/626/8 215/668/179
f 118/669/191 190/478/384 132/480/190
f 259/670/464 275/671/194 242/672/386
f 423/632/452 450/66/60 452/673/389
f 275/674/194 340/675/465 350/676/204
f 478/494/304 460/47/41 429/46/40
f 368/225/198 418/240/210 392/488/67
f 294/677/466 338/574/432 322/576/433
f 15/271/231 18/273/233 32/637/318
f 482/492/391 466/245/215 443/244/214
f 338/642/432 294/678/466 284/243/213
f 338/642/432 284/243/213 330/580/434
f 415/679/467 465/251/221 472/680/402
f 472/681/402 482/492/391 443/244/214
f 405/72/66 400/261/226 412/250/220
f 330/580/434 284/243/213 252/242/212
f 196/78/72 348/101/90 306/682/217
f 281/67/61 323/63/57 313/640/323
f 86/683/398 81/684/468 50/284/243
f 143/254/224 127/97/86 123/96/85
f 196/78/72 266/99/88 348/101/90
f 489/362/305 482/648/391 491/585/436
f 495/398/328 492/497/316 489/362/305
f 487/685/407 486/376/315 492/377/316
f 13/288/234 19/686/320 34/289/246
f 7/413/96 8/687/232 2/414/338
f 185/276/236 293/110/97 266/99/88
f 1/688/469 6/689/235 10/690/440
f 441/120/106 362/285/89 371/118/98
f 432/296/252 394/691/258 384/408/335
f 394/691/258 377/321/271 336/692/256
f 377/321/271 347/305/260 315/307/262
f 490/693/470 494/399/329 485/532/413
f 485/532/413 494/399/329 481/427/348
f 311/457/367 397/119/105 414/694/118
f 397/119/105 370/458/368 413/434/351
f 47/164/146 76/166/148 57/695/104
f 178/185/166 155/184/165 187/295/251
f 199/600/140 250/160/143 230/696/372
f 41/436/353 60/165/147 47/164/146
f 117/472/380 107/697/471 150/554/425
f 146/473/381 176/198/177 194/5/5
f 96/667/426 82/211/181 113/698/183
f 164/27/25 126/358/302 100/208/186
f 427/50/44 390/20/20 385/354/299
f 259/670/464 242/672/386 258/217/192
f 205/22/22 224/227/200 208/563/428
f 367/62/56 339/355/207 430/356/300
f 339/355/207 425/566/39 430/356/300
f 231/699/388 217/700/30 213/701/21
f 483/495/306 460/567/41 478/702/304
f 186/625/197 239/703/472 184/571/430
f 25/42/36 39/228/201 45/43/37
f 186/224/197 159/704/473 173/705/474
f 451/368/310 416/357/301 430/356/300
f 81/684/468 108/706/393 77/212/189
f 309/707/475 341/638/455 340/675/465
f 234/708/453 277/80/74 261/35/31
f 301/246/216 261/38/31 277/709/74
f 453/252/222 449/48/42 427/50/44
f 422/573/431 416/357/301 451/368/310
f 412/710/220 385/711/299 346/712/28
f 331/248/218 304/39/33 301/246/216
f 251/41/35 271/61/55 235/84/77
f 306/247/217 348/713/90 331/248/218
f 329/714/476 252/242/212 231/486/388
f 358/715/82 388/379/65 418/378/210
f 358/715/82 418/378/210 438/716/75
f 116/717/477 143/254/224 123/96/85
f 23/278/238 31/521/404 37/523/400
f 428/718/317 387/406/325 389/520/403
f 163/400/330 145/402/332 124/652/99
f 356/422/346 320/586/437 384/719/335
f 384/719/335 320/586/437 353/720/336
f 494/399/329 490/693/470 493/524/405
f 267/129/115 371/111/98 293/110/97
f 201/294/229 241/428/349 187/295/251
f 398/589/439 386/301/257 402/596/358
f 305/721/478 343/420/344 270/535/415
f 30/601/441 20/525/406 16/588/94
f 30/601/441 28/722/479 20/525/406
f 414/694/118 397/119/105 371/118/98
f 490/723/470 488/724/461 484/725/343
f 182/152/137 180/151/123 169/454/122
f 288/726/459 321/727/480 336/728/256
f 476/418/342 455/144/130 463/146/132
f 295/536/357 204/174/156 248/173/155
f 214/729/138 209/553/424 228/730/481
f 345/544/276 383/161/144 439/663/462
f 28/722/479 58/547/421 54/335/284
f 203/606/443 200/731/154 197/732/163
f 68/548/422 58/547/421 48/310/265
f 109/183/164 178/185/166 153/733/482
f 147/345/292 146/473/381 168/344/291
f 95/202/180 88/3/3 102/2/2
f 55/622/448 78/620/427 64/12/12
f 207/349/296 262/4/4 316/19/19
f 190/478/384 232/734/382 202/479/383
f 374/18/18 373/239/209 333/25/23
f 232/475/382 239/735/472 238/736/451
f 275/482/194 249/737/26 240/17/17
f 253/738/483 208/563/428 224/227/200
f 446/739/454 406/241/211 423/630/452
f 423/630/452 406/241/211 364/565/387
f 137/634/308 177/636/205 118/669/191
f 291/740/195 231/741/388 249/742/26
f 368/225/198 364/565/387 406/241/211
f 378/743/392 350/676/204 340/675/465
f 391/509/396 378/743/392 341/638/455
f 379/249/219 416/357/301 422/573/431
f 367/62/56 416/357/301 379/249/219
f 144/503/394 173/705/474 159/704/473
f 277/80/74 234/708/453 179/79/73
f 306/247/217 301/246/216 277/709/74
f 415/679/467 381/360/206 359/238/208
f 148/255/71 143/254/224 106/744/484
f 404/745/397 389/746/403 407/747/313
f 480/748/401 428/749/317 473/750/309
f 5/94/83 3/93/68 2/414/338
f 428/381/317 389/646/403 421/645/456
f 21/277/237 31/521/404 23/278/238
f 136/113/100 123/96/85 110/95/84
f 493/524/405 487/751/407 492/497/316
f 6/689/235 1/688/469 3/93/68
f 2/414/338 1/688/469 4/412/337
f 163/752/330 124/753/99 151/754/458
f 20/525/406 14/272/95 16/588/94
f 343/420/344 396/527/408 398/755/439
f 187/295/251 133/529/410 141/281/241
f 399/661/460 377/321/271 394/691/258
f 399/661/460 394/691/258 432/296/252
f 315/756/262 353/426/336 376/423/347
f 377/757/271 315/758/262 376/759/347
f 403/303/259 440/143/129 437/533/414
f 433/451/365 410/452/108 431/760/107
f 133/529/410 130/147/133 104/133/119
f 228/761/481 163/400/330 175/316/139
f 175/316/139 161/653/126 174/317/125
f 76/604/148 92/125/111 57/117/104
f 166/528/409 155/184/165 130/147/133
f 297/177/159 314/762/121 292/763/350
f 297/177/159 325/326/275 314/762/121
f 326/764/145 311/457/367 414/694/118
f 342/157/141 372/156/127 318/765/267
f 119/453/366 183/766/171 216/450/364
f 247/767/370 264/323/273 286/325/274
f 243/340/288 268/665/463 229/768/485
f 70/466/375 36/334/283 62/333/282
f 153/733/482 178/185/166 195/336/285
f 125/193/172 129/179/161 91/178/160
f 298/468/377 255/769/486 256/469/378
f 125/193/172 101/464/373 131/770/487
f 111/771/488 101/464/373 87/772/489
f 111/771/488 135/773/446 101/464/373
f 156/196/175 192/195/174 171/613/289
f 156/774/175 135/773/446 111/771/488
f 74/13/13 102/2/2 114/206/184
f 83/775/490 61/623/449 74/13/13
f 45/43/37 78/562/427 55/776/448
f 164/27/25 100/208/186 162/347/294
f 49/624/450 61/623/449 83/775/490
f 83/775/490 100/208/186 80/55/49
f 346/712/28 263/777/6 246/778/32
f 42/14/14 45/779/37 55/622/448
f 390/20/20 427/50/44 374/18/18
f 35/780/38 45/779/37 42/14/14
f 220/226/199 205/22/22 217/34/30
f 479/58/52 458/60/54 483/495/306
f 460/567/41 483/495/306 458/60/54
f 434/388/321 427/499/44 385/502/299
f 98/56/50 126/358/302 120/57/51
f 210/223/196 186/224/197 173/705/474
f 337/68/62 357/69/63 317/230/203
f 137/634/308 118/669/191 108/781/393
f 430/356/300 464/59/53 451/368/310
f 478/494/304 429/46/40 466/245/215
f 179/782/73 173/705/474 157/256/225
f 415/679/467 449/48/42 465/251/221
f 86/683/398 108/706/393 81/684/468
f 426/49/43 415/679/467 359/238/208
f 22/258/223 15/268/231 32/783/318
f 193/265/228 160/267/230 149/491/390
f 12/76/70 27/386/319 38/86/79
f 201/266/229 193/265/228 235/84/77
f 5/257/83 15/268/231 22/258/223
f 40/784/491 19/387/320 38/86/79
f 480/785/401 435/407/334 428/718/317
f 84/98/87 75/70/64 115/786/239
f 141/281/241 160/282/230 201/294/229
f 7/413/96 14/272/95 8/687/232
f 445/286/244 461/291/248 467/290/247
f 34/289/246 43/787/333 29/293/250
f 44/522/242 57/695/104 59/788/103
f 241/431/349 272/262/78 319/394/324
f 33/437/354 57/695/104 44/522/242
f 133/529/410 104/133/119 89/106/93
f 490/789/470 484/419/343 493/649/405
f 11/790/255 26/587/438 4/412/337
f 403/791/259 437/792/414 419/169/151
f 28/722/479 24/438/355 20/525/406
f 336/300/256 310/540/417 334/308/263
f 424/602/362 419/169/151 457/793/249
f 448/448/363 424/447/362 457/292/249
f 321/794/480 310/540/417 336/300/256
f 488/662/461 490/693/470 485/532/413
f 310/540/417 321/794/480 285/541/418
f 279/170/152 303/315/268 354/171/153
f 417/168/150 375/320/270 409/319/269
f 442/145/131 417/168/150 409/319/269
f 488/795/461 420/796/142 468/797/149
f 221/798/162 204/174/156 295/536/357
f 230/799/372 214/729/138 199/800/140
f 424/447/362 436/435/352 369/801/442
f 436/435/352 363/802/492 369/801/442
f 345/544/276 326/162/145 383/161/144
f 229/803/485 265/804/493 280/805/157
f 326/764/145 265/806/493 311/457/367
f 119/453/366 129/605/161 183/766/171
f 363/807/492 308/189/169 369/603/442
f 363/807/492 324/808/376 308/189/169
f 101/464/373 125/193/172 91/178/160
f 268/665/463 255/769/486 298/468/377
f 94/611/445 70/466/375 93/552/423
f 94/611/445 99/610/444 70/466/375
f 111/771/488 97/612/379 156/774/175
f 88/3/3 64/12/12 78/620/427
f 238/736/451 215/476/179 232/475/382
f 316/19/19 333/25/23 189/348/295
f 333/25/23 164/27/25 189/348/295
f 100/208/186 98/56/50 80/55/49
f 80/55/49 49/624/450 83/775/490
f 289/33/29 346/32/28 246/809/32
f 352/229/202 357/69/63 408/64/58
f 234/708/453 246/37/32 218/810/9
f 246/37/32 234/708/453 261/35/31
f 446/739/454 423/630/452 452/811/389
f 309/812/475 340/813/465 275/814/194
f 32/385/318 46/481/385 49/624/450
f 294/678/466 253/738/483 284/243/213
f 239/703/472 227/815/46 184/571/430
f 139/372/312 137/816/308 108/498/393
f 252/242/212 224/227/200 220/226/199
f 157/256/225 173/705/474 144/503/394
f 421/645/456 379/249/219 422/573/431
f 331/248/218 358/91/82 304/39/33
f 159/704/473 127/97/86 144/503/394
f 322/817/433 379/818/219 404/511/397
f 12/76/70 22/253/223 27/386/319
f 472/681/402 443/244/214 415/819/467
f 63/514/399 50/284/243 81/684/468
f 145/402/332 172/401/331 148/77/71
f 38/86/79 53/88/81 56/820/91
f 106/744/484 116/717/477 124/112/99
f 40/821/491 38/822/79 43/823/333
f 90/127/113 110/824/84 86/683/398
f 487/526/407 435/407/334 480/785/401
f 124/112/99 116/717/477 136/113/100
f 20/525/406 21/277/237 18/273/233
f 387/406/325 384/408/335 332/411/326
f 435/407/334 432/296/252 384/408/335
f 31/521/404 33/437/354 44/522/242
f 241/431/349 244/263/227 272/262/78
f 43/787/333 51/825/266 29/293/250
f 461/291/248 448/448/363 457/292/249
f 124/652/99 122/592/101 161/653/126
f 228/761/481 185/276/236 163/400/330
f 295/536/357 270/535/415 343/420/344
f 399/661/460 432/296/252 462/298/254
f 47/164/146 57/695/104 33/437/354
f 28/722/479 36/334/283 24/438/355
f 175/826/139 214/729/138 228/730/481
f 76/604/148 119/453/366 92/125/111
f 342/157/141 283/827/261 375/828/270
f 119/453/366 169/454/122 134/126/112
f 433/451/365 439/663/462 383/161/144
f 436/435/352 413/434/351 363/802/492
f 401/829/419 345/544/276 439/663/462
f 233/332/281 236/186/167 257/329/278
f 72/149/135 109/183/164 68/551/422
f 188/337/286 286/325/274 216/830/364
f 188/337/286 247/767/370 286/325/274
f 183/831/171 188/337/286 216/830/364
f 99/832/444 97/833/379 70/834/375
f 97/612/379 87/772/489 70/466/375
f 181/835/173 255/769/486 192/342/174
f 215/201/179 176/198/177 158/197/176
f 142/207/185 114/206/184 102/2/2
f 105/210/188 128/561/182 82/211/181
f 198/15/15 208/836/428 225/16/16
f 344/837/298 263/777/6 346/712/28
f 242/672/386 225/218/16 258/217/192
f 118/669/191 177/636/205 190/478/384
f 52/87/80 49/624/450 80/55/49
f 299/838/494 258/839/192 269/840/193
f 327/510/395 269/841/193 322/817/433
f 77/212/189 63/514/399 81/684/468
f 299/838/494 341/638/455 258/839/192
f 281/67/61 235/84/77 271/61/55
f 426/49/43 449/48/42 415/679/467
f 137/816/308 139/372/312 167/371/307
f 37/515/400 63/514/399 39/228/201
f 300/568/429 350/842/204 380/583/314
f 300/568/429 380/583/314 329/843/476
f 379/249/219 421/645/456 404/644/397
f 421/645/456 422/573/431 428/381/317
f 355/582/435 329/843/476 380/583/314
f 110/95/84 127/97/86 108/498/393
f 332/396/326 313/640/323 360/397/327
f 40/844/491 34/289/246 19/686/320
f 13/288/234 10/591/440 6/845/235
f 396/846/408 356/847/346 386/848/257
f 384/719/335 386/849/257 356/422/346
f 241/431/349 319/394/324 315/756/262
f 283/429/261 241/431/349 315/756/262
f 343/850/344 305/851/478 254/852/457
f 336/424/256 353/426/336 320/853/437
f 270/535/415 254/651/457 305/721/478
f 270/535/415 248/173/155 254/651/457
f 403/303/259 372/141/127 440/143/129
f 245/854/495 288/855/459 290/856/345
f 288/659/459 320/658/437 290/857/345
f 383/858/144 414/859/118 410/860/108
f 28/722/479 30/601/441 58/547/421
f 229/861/485 280/862/157 274/863/416
f 228/730/481 229/768/485 274/864/416
f 280/175/157 297/177/159 292/763/350
f 393/543/369 349/865/412 325/326/275
f 413/434/351 370/458/368 298/468/377
f 413/434/351 298/468/377 363/802/492
f 308/189/169 279/170/152 369/603/442
f 109/183/164 107/697/471 68/551/422
f 219/470/371 209/553/424 214/729/138
f 230/799/372 219/470/371 214/729/138
f 153/733/482 150/554/425 109/183/164
f 150/554/425 107/697/471 109/183/164
f 243/340/288 192/342/174 268/665/463
f 94/866/445 93/549/423 117/472/380
f 152/616/447 112/1/1 138/199/178
f 102/2/2 112/1/1 146/473/381
f 146/473/381 147/345/292 102/2/2
f 207/349/296 168/344/291 194/5/5
f 83/775/490 74/13/13 114/206/184
f 218/9/9 246/867/32 263/350/6
f 269/868/193 225/869/16 208/870/428
f 269/868/193 208/870/428 253/871/483
f 309/812/475 275/814/194 259/872/464
f 374/873/18 427/874/44 426/875/43
f 368/225/198 392/488/67 346/32/28
f 253/738/483 224/227/200 284/243/213
f 327/507/395 299/838/494 269/840/193
f 418/240/210 406/241/211 446/739/454
f 210/223/196 179/782/73 234/631/453
f 227/815/46 191/572/48 184/571/430
f 300/876/429 291/877/195 350/878/204
f 300/568/429 329/843/476 231/569/388
f 179/782/73 157/256/225 148/255/71
f 404/511/397 327/510/395 322/817/433
f 486/376/315 475/369/311 479/58/52
f 411/879/59 438/81/75 450/83/60
f 355/581/435 252/242/212 329/714/476
f 106/744/484 145/880/332 148/255/71
f 121/517/240 115/786/239 75/70/64
f 50/284/243 79/115/102 86/683/398
f 486/376/315 487/685/407 480/516/401
f 123/96/85 136/113/100 116/717/477
f 313/392/323 332/881/326 319/394/324
f 59/116/103 79/115/102 50/284/243
f 136/113/100 110/95/84 122/114/101
f 43/787/333 34/289/246 40/844/491
f 51/825/266 56/104/91 65/105/92
f 56/104/91 51/825/266 43/787/333
f 384/882/335 394/302/258 386/301/257
f 462/298/254 471/297/253 476/418/342
f 353/426/336 315/756/262 319/394/324
f 10/690/440 4/412/337 1/688/469
f 441/120/106 448/448/363 461/291/248
f 382/883/114 410/860/108 414/859/118
f 365/530/411 361/884/109 314/885/121
f 366/594/117 267/129/115 312/432/116
f 454/886/360 433/451/365 431/760/107
f 200/887/154 203/888/443 248/889/155
f 349/531/412 314/885/121 325/890/275
f 419/169/151 354/171/153 403/791/259
f 476/891/342 488/795/461 468/797/149
f 221/892/162 295/441/357 282/440/356
f 273/159/136 264/893/273 250/160/143
f 250/160/143 264/893/273 230/696/372
f 245/854/495 226/608/280 288/855/459
f 216/830/364 286/325/274 273/324/136
f 444/894/361 439/895/462 456/896/359
f 393/897/369 401/898/419 444/894/361
f 439/895/462 444/894/361 401/898/419
f 36/334/283 28/722/479 54/335/284
f 101/464/373 91/178/160 60/165/147
f 209/553/424 243/340/288 229/768/485
f 93/549/423 68/551/422 107/697/471
f 195/336/285 150/554/425 153/733/482
f 308/189/169 324/808/376 256/666/378
f 183/831/171 125/338/172 188/337/286
f 70/466/375 87/772/489 67/465/374
f 219/470/371 247/767/370 188/337/286
f 131/770/487 101/464/373 135/773/446
f 165/899/287 131/770/487 135/773/446
f 170/346/293 168/344/291 207/349/296
f 142/207/185 170/346/293 162/347/294
f 211/8/8 206/10/10 215/900/179
f 114/206/184 100/208/186 83/775/490
f 100/208/186 142/207/185 162/347/294
f 239/735/472 232/475/382 276/53/47
f 239/703/472 186/625/197 238/627/451
f 231/901/388 213/902/21 249/903/26
f 239/703/472 276/904/47 227/815/46
f 77/212/189 108/706/393 118/216/191
f 184/571/430 159/905/473 186/625/197
f 341/638/455 378/743/392 340/675/465
f 443/906/214 381/360/206 415/679/467
f 22/253/223 32/385/318 27/386/319
f 388/379/65 358/715/82 331/907/218
f 337/370/62 358/91/82 411/90/59
f 121/517/240 75/70/64 120/57/51
f 19/387/320 3/74/68 12/76/70
f 3/93/68 1/688/469 2/414/338
f 19/387/320 13/274/234 3/74/68
f 90/127/113 86/683/398 79/115/102
f 90/127/113 122/592/101 110/824/84
f 491/585/436 481/427/348 494/399/329
f 185/276/236 228/761/481 267/129/115
f 228/908/481 274/909/416 267/910/115
f 365/530/411 395/459/110 361/884/109
f 30/601/441 26/587/438 29/311/250
f 248/911/155 203/606/443 254/912/457
f 440/143/129 459/142/128 481/427/348
f 349/531/412 365/530/411 314/885/121
f 402/442/358 295/441/357 398/913/439
f 260/328/277 351/309/264 334/308/263
f 476/418/342 468/167/149 455/144/130
f 68/914/422 48/915/265 51/916/266
f 103/148/134 130/147/133 155/184/165
f 282/443/356 260/328/277 236/186/167
f 182/152/137 119/453/366 216/450/364
f 287/330/279 280/175/157 265/917/493
f 287/545/279 265/918/493 326/162/145
f 247/461/370 230/463/372 264/919/273
f 223/607/168 203/606/443 197/732/163
f 36/334/283 70/466/375 41/436/353
f 219/470/371 212/343/290 209/553/424
f 278/190/170 256/666/378 195/336/285
f 278/190/170 308/189/169 256/666/378
f 181/194/173 150/554/425 195/336/285
f 192/342/174 255/769/486 268/665/463
f 152/616/447 138/199/178 176/198/177
f 71/209/187 82/211/181 69/352/297
f 316/19/19 262/4/4 344/353/298
f 316/19/19 344/353/298 390/20/20
f 317/230/203 352/229/202 302/485/34
f 32/385/318 35/780/38 46/481/385
f 276/53/47 190/564/384 177/234/205
f 373/239/209 359/238/208 307/26/24
f 164/27/25 251/41/35 140/359/303
f 464/59/53 430/356/300 458/60/54
f 39/228/201 63/514/399 71/209/187
f 179/782/73 210/223/196 173/705/474
f 184/571/430 167/570/307 159/905/473
f 127/97/86 159/704/473 167/371/307
f 121/517/240 120/57/51 149/491/390
f 438/716/75 418/378/210 447/920/76
f 116/717/477 106/744/484 143/254/224
f 400/921/226 348/101/90 362/100/89
f 2/414/338 8/687/232 5/94/83
f 37/515/400 44/283/242 50/284/243
f 106/744/484 124/112/99 145/880/332
f 434/388/321 445/286/244 467/290/247
f 115/279/239 89/106/93 84/103/87
f 477/416/340 474/389/322 457/292/249
f 467/290/247 457/292/249 474/389/322
f 477/416/340 457/292/249 469/417/341
f 476/418/342 463/146/132 462/298/254
f 122/592/101 134/126/112 161/653/126
f 161/653/126 134/126/112 154/657/124
f 187/295/251 166/528/409 133/529/410
f 413/434/351 441/120/106 397/119/105
f 349/531/412 393/460/369 395/459/110
f 318/314/267 237/322/272 283/922/261
f 347/305/260 377/321/271 375/320/270
f 342/157/141 318/765/267 283/827/261
f 402/596/358 351/309/264 282/443/356
f 203/606/443 226/608/280 245/854/495
f 109/183/164 72/149/135 103/148/134
f 204/923/156 197/732/163 200/731/154
f 85/546/420 54/335/284 58/547/421
f 181/835/173 256/469/378 255/769/486
f 107/697/471 117/472/380 93/549/423
f 165/339/287 219/470/371 188/337/286
f 131/770/487 165/899/287 125/193/172
f 111/771/488 87/772/489 97/612/379
f 171/613/289 135/615/446 156/196/175
f 112/1/1 152/616/447 146/473/381
f 138/199/178 113/205/183 128/204/182
f 96/558/426 112/1/1 69/621/297
f 132/480/190 202/479/383 158/559/176
f 61/623/449 73/11/11 74/13/13
f 210/223/196 218/9/9 211/8/8
f 346/712/28 385/711/299 344/837/298
f 35/780/38 42/14/14 46/481/385
f 126/358/302 98/56/50 100/208/186
f 302/40/34 304/39/33 317/490/203
f 425/566/39 458/60/54 430/356/300
f 294/677/466 269/868/193 253/871/483
f 322/576/433 269/868/193 294/677/466
f 309/707/475 259/924/464 258/839/192
f 309/707/475 258/839/192 341/638/455
f 341/638/455 299/838/494 327/507/395
f 446/925/454 447/920/76 418/378/210
f 32/385/318 49/624/450 52/87/80
f 32/385/318 52/87/80 38/86/79
f 37/515/400 39/228/201 25/42/36
f 407/508/313 378/743/392 391/509/396
f 407/584/313 389/926/403 355/582/435
f 355/581/435 389/927/403 330/580/434
f 428/718/317 435/407/334 387/406/325
f 491/585/436 494/399/329 489/362/305
f 89/106/93 115/279/239 133/529/410
f 493/524/405 495/398/328 494/399/329
f 484/419/343 471/297/253 487/526/407
f 471/297/253 432/296/252 435/407/334
f 17/287/245 10/591/440 13/288/234
f 26/587/438 30/601/441 16/588/94
f 11/790/255 4/412/337 10/690/440
f 66/134/120 51/825/266 65/105/92
f 295/536/357 343/420/344 398/755/439
f 290/856/345 254/912/457 245/854/495
f 476/418/342 484/419/343 488/928/461
f 245/854/495 254/912/457 203/606/443
f 409/319/269 377/321/271 399/661/460
f 29/311/250 48/310/265 30/601/441
f 334/308/263 257/329/278 260/328/277
f 334/308/263 310/540/417 257/329/278
f 72/149/135 51/825/266 66/134/120
f 174/139/125 154/138/124 199/600/140
f 321/727/480 288/726/459 285/929/418
f 72/930/135 68/931/422 51/932/266
f 285/541/418 288/933/459 226/331/280
f 298/468/377 370/458/368 311/457/367
f 265/934/493 229/935/485 311/936/367
f 229/768/485 268/665/463 311/457/367
f 228/730/481 209/553/424 229/768/485
f 363/802/492 298/468/377 324/467/376
f 41/436/353 67/465/374 60/165/147
f 87/772/489 101/464/373 67/465/374
